<svg width="160" height="160" viewBox="0 0 160 160" fill="none" xmlns="http://www.w3.org/2000/svg">
<g opacity="0.1" clip-path="url(#clip0_164_1280)">
<path d="M74.8836 85.1167C187.416 -27.4155 -27.4153 -27.4155 85.1169 85.1167C-27.4153 -27.4155 -27.4153 187.416 85.1169 74.8833C-27.4153 187.416 187.416 187.416 74.8836 74.8833C187.416 187.416 187.416 -27.4155 74.8836 85.1167Z" stroke="#1E52A6" stroke-miterlimit="10"/>
<path d="M79.9651 87.2225C80.609 -71.9167 -71.8994 79.3735 87.2224 80.0174C-71.9168 79.3735 79.3733 231.882 80.0173 72.7601C79.3733 231.899 231.882 80.6091 72.7599 79.9652C231.899 80.6091 80.609 -71.8993 79.9651 87.2225Z" stroke="#1E52A6" stroke-miterlimit="10"/>
<path d="M79.9651 87.2225C80.609 -71.9167 -71.8994 79.3735 87.2224 80.0174C-71.9168 79.3735 79.3733 231.882 80.0173 72.7601C79.3733 231.899 231.882 80.6091 72.7599 79.9652C231.899 80.6091 80.609 -71.8993 79.9651 87.2225Z" stroke="#1E52A6" stroke-miterlimit="10"/>
<path d="M77.1285 86.6308C140.304 -59.4209 -59.4208 19.6789 86.6309 82.8716C-59.4208 19.6963 19.6789 219.421 82.8717 73.3692C19.6964 219.421 219.421 140.321 73.3693 77.1284C219.421 140.304 140.321 -59.4209 77.1285 86.6308Z" stroke="#1E52A6" stroke-miterlimit="10"/>
<path d="M82.6281 86.7352C24.6217 -61.4571 -61.4569 135.361 86.7354 77.3546C-61.4569 135.361 135.361 221.44 77.3722 73.2474C135.379 221.44 221.457 24.6215 73.265 82.628C221.457 24.6215 24.6391 -61.4571 82.6455 86.7352H82.6281Z" stroke="#1E52A6" stroke-miterlimit="10"/>
</g>
<defs>
<clipPath id="clip0_164_1280">
<rect width="159" height="159" fill="white" transform="translate(0.5 0.5)"/>
</clipPath>
</defs>
</svg>
