<svg width="1121" height="641" viewBox="0 0 1121 641" fill="none" xmlns="http://www.w3.org/2000/svg">
<mask id="mask0_0_1" style="mask-type:luminance" maskUnits="userSpaceOnUse" x="1051" y="70" width="70" height="501">
<path d="M1121 70.5H1051V570.5H1121V70.5Z" fill="white"/>
</mask>
<g mask="url(#mask0_0_1)">
<path d="M1051.92 70.7323C1082.17 70.7323 1107.92 51.5657 1117.69 24.7502C1120.41 17.277 1121.9 9.21033 1121.9 0.813982C1121.9 -37.8048 1090.57 -69.1263 1051.9 -69.1263" stroke="#1E52A6" stroke-width="0.5" stroke-miterlimit="10"/>
<path d="M1051.92 84.7994C1082.17 84.7994 1107.92 65.6329 1117.69 38.8173C1120.41 31.3441 1121.9 23.2775 1121.9 14.8811C1121.9 -23.7377 1090.57 -55.0591 1051.9 -55.0591" stroke="#1E52A6" stroke-width="0.5" stroke-miterlimit="10"/>
<path d="M1051.92 98.8446C1082.17 98.8446 1107.92 79.6781 1117.69 52.8625C1120.41 45.3893 1121.9 37.3227 1121.9 28.9263C1121.9 -9.69249 1090.57 -41.0139 1051.9 -41.0139" stroke="#1E52A6" stroke-width="0.5" stroke-miterlimit="10"/>
<path d="M1051.92 112.912C1082.17 112.912 1107.92 93.7452 1117.69 66.9297C1120.41 59.4565 1121.9 51.3898 1121.9 42.9935C1121.9 4.37468 1090.57 -26.9468 1051.9 -26.9468" stroke="#1E52A6" stroke-width="0.5" stroke-miterlimit="10"/>
<path d="M1051.92 126.979C1082.17 126.979 1107.92 107.812 1117.69 80.9969C1120.41 73.5237 1121.9 65.457 1121.9 57.0607C1121.9 18.4419 1090.57 -12.8796 1051.9 -12.8796" stroke="#1E52A6" stroke-width="0.5" stroke-miterlimit="10"/>
<path d="M1051.92 141.024C1082.17 141.024 1107.92 121.858 1117.69 95.042C1120.41 87.5688 1121.9 79.5022 1121.9 71.1058C1121.9 32.487 1090.57 1.16559 1051.9 1.16559" stroke="#1E52A6" stroke-width="0.5" stroke-miterlimit="10"/>
<path d="M1051.92 155.091C1082.17 155.091 1107.92 135.925 1117.69 109.109C1120.41 101.636 1121.9 93.5694 1121.9 85.1731C1121.9 46.5543 1090.57 15.2328 1051.9 15.2328" stroke="#1E52A6" stroke-width="0.5" stroke-miterlimit="10"/>
<path d="M1051.92 169.137C1082.17 169.137 1107.92 149.97 1117.69 123.154C1120.41 115.681 1121.9 107.615 1121.9 99.2183C1121.9 60.5995 1090.57 29.278 1051.9 29.278" stroke="#1E52A6" stroke-width="0.5" stroke-miterlimit="10"/>
<path d="M1051.92 183.204C1082.17 183.204 1107.92 164.037 1117.69 137.222C1120.41 129.748 1121.9 121.682 1121.9 113.285C1121.9 74.6666 1090.57 43.3452 1051.9 43.3452" stroke="#1E52A6" stroke-width="0.5" stroke-miterlimit="10"/>
<path d="M1051.92 197.271C1082.17 197.271 1107.92 178.104 1117.69 151.289C1120.41 143.816 1121.9 135.749 1121.9 127.353C1121.9 88.7338 1090.57 57.4124 1051.9 57.4124" stroke="#1E52A6" stroke-width="0.5" stroke-miterlimit="10"/>
<path d="M1051.92 211.316C1082.17 211.316 1107.92 192.15 1117.69 165.334C1120.41 157.861 1121.9 149.794 1121.9 141.398C1121.9 102.779 1090.57 71.4576 1051.9 71.4576" stroke="#1E52A6" stroke-width="0.5" stroke-miterlimit="10"/>
<path d="M1051.92 225.383C1082.17 225.383 1107.92 206.217 1117.69 179.401C1120.41 171.928 1121.9 163.861 1121.9 155.465C1121.9 116.846 1090.57 85.5247 1051.9 85.5247" stroke="#1E52A6" stroke-width="0.5" stroke-miterlimit="10"/>
<path d="M1051.92 239.428C1082.17 239.428 1107.92 220.262 1117.69 193.446C1120.41 185.973 1121.9 177.907 1121.9 169.51C1121.9 130.891 1090.57 99.5699 1051.9 99.5699" stroke="#1E52A6" stroke-width="0.5" stroke-miterlimit="10"/>
<path d="M1051.92 253.496C1082.17 253.496 1107.92 234.329 1117.69 207.514C1120.41 200.04 1121.9 191.974 1121.9 183.577C1121.9 144.959 1090.57 113.637 1051.9 113.637" stroke="#1E52A6" stroke-width="0.5" stroke-miterlimit="10"/>
<path d="M1051.92 267.563C1082.17 267.563 1107.92 248.396 1117.69 221.581C1120.41 214.108 1121.9 206.041 1121.9 197.645C1121.9 159.026 1090.57 127.704 1051.9 127.704" stroke="#1E52A6" stroke-width="0.5" stroke-miterlimit="10"/>
<path d="M1051.92 281.608C1082.17 281.608 1107.92 262.442 1117.69 235.626C1120.41 228.153 1121.9 220.086 1121.9 211.69C1121.9 173.071 1090.57 141.75 1051.9 141.75" stroke="#1E52A6" stroke-width="0.5" stroke-miterlimit="10"/>
<path d="M1051.92 295.675C1082.17 295.675 1107.92 276.509 1117.69 249.693C1120.41 242.22 1121.9 234.153 1121.9 225.757C1121.9 187.138 1090.57 155.817 1051.9 155.817" stroke="#1E52A6" stroke-width="0.5" stroke-miterlimit="10"/>
<path d="M1051.92 309.742C1082.17 309.742 1107.92 290.576 1117.69 263.76C1120.41 256.287 1121.9 248.22 1121.9 239.824C1121.9 201.205 1090.57 169.884 1051.9 169.884" stroke="#1E52A6" stroke-width="0.5" stroke-miterlimit="10"/>
<path d="M1051.92 323.788C1082.17 323.788 1107.92 304.621 1117.69 277.806C1120.41 270.332 1121.9 262.266 1121.9 253.869C1121.9 215.251 1090.57 183.929 1051.9 183.929" stroke="#1E52A6" stroke-width="0.5" stroke-miterlimit="10"/>
<path d="M1051.92 337.855C1082.17 337.855 1107.92 318.688 1117.69 291.873C1120.41 284.4 1121.9 276.333 1121.9 267.937C1121.9 229.318 1090.57 197.996 1051.9 197.996" stroke="#1E52A6" stroke-width="0.5" stroke-miterlimit="10"/>
<path d="M1051.92 351.9C1082.17 351.9 1107.92 332.733 1117.69 305.918C1120.41 298.445 1121.9 290.378 1121.9 281.982C1121.9 243.363 1090.57 212.041 1051.9 212.041" stroke="#1E52A6" stroke-width="0.5" stroke-miterlimit="10"/>
<path d="M1051.92 365.967C1082.17 365.967 1107.92 346.801 1117.69 319.985C1120.41 312.512 1121.9 304.445 1121.9 296.049C1121.9 257.43 1090.57 226.109 1051.9 226.109" stroke="#1E52A6" stroke-width="0.5" stroke-miterlimit="10"/>
<path d="M1051.92 380.034C1082.17 380.034 1107.92 360.868 1117.69 334.052C1120.41 326.579 1121.9 318.512 1121.9 310.116C1121.9 271.497 1090.57 240.176 1051.9 240.176" stroke="#1E52A6" stroke-width="0.5" stroke-miterlimit="10"/>
<path d="M1051.92 394.08C1082.17 394.08 1107.92 374.913 1117.69 348.097C1120.41 340.624 1121.9 332.558 1121.9 324.161C1121.9 285.542 1090.57 254.221 1051.9 254.221" stroke="#1E52A6" stroke-width="0.5" stroke-miterlimit="10"/>
<path d="M1051.92 408.147C1082.17 408.147 1107.92 388.98 1117.69 362.165C1120.41 354.691 1121.9 346.625 1121.9 338.228C1121.9 299.61 1090.57 268.288 1051.9 268.288" stroke="#1E52A6" stroke-width="0.5" stroke-miterlimit="10"/>
<path d="M1051.92 422.214C1082.17 422.214 1107.92 403.047 1117.69 376.232C1120.41 368.759 1121.9 360.692 1121.9 352.296C1121.9 313.677 1090.57 282.355 1051.9 282.355" stroke="#1E52A6" stroke-width="0.5" stroke-miterlimit="10"/>
<path d="M1051.92 436.259C1082.17 436.259 1107.92 417.093 1117.69 390.277C1120.41 382.804 1121.9 374.737 1121.9 366.341C1121.9 327.722 1090.57 296.401 1051.9 296.401" stroke="#1E52A6" stroke-width="0.5" stroke-miterlimit="10"/>
<path d="M1051.92 450.326C1082.17 450.326 1107.92 431.16 1117.69 404.344C1120.41 396.871 1121.9 388.804 1121.9 380.408C1121.9 341.789 1090.57 310.468 1051.9 310.468" stroke="#1E52A6" stroke-width="0.5" stroke-miterlimit="10"/>
<path d="M1051.92 464.371C1082.17 464.371 1107.92 445.205 1117.69 418.389C1120.41 410.916 1121.9 402.85 1121.9 394.453C1121.9 355.834 1090.57 324.513 1051.9 324.513" stroke="#1E52A6" stroke-width="0.5" stroke-miterlimit="10"/>
<path d="M1051.92 478.439C1082.17 478.439 1107.92 459.272 1117.69 432.457C1120.41 424.983 1121.9 416.917 1121.9 408.52C1121.9 369.902 1090.57 338.58 1051.9 338.58" stroke="#1E52A6" stroke-width="0.5" stroke-miterlimit="10"/>
<path d="M1051.92 492.506C1082.17 492.506 1107.92 473.339 1117.69 446.524C1120.41 439.051 1121.9 430.984 1121.9 422.588C1121.9 383.969 1090.57 352.647 1051.9 352.647" stroke="#1E52A6" stroke-width="0.5" stroke-miterlimit="10"/>
<path d="M1051.92 506.551C1082.17 506.551 1107.92 487.384 1117.69 460.569C1120.41 453.096 1121.9 445.029 1121.9 436.633C1121.9 398.014 1090.57 366.692 1051.9 366.692" stroke="#1E52A6" stroke-width="0.5" stroke-miterlimit="10"/>
<path d="M1051.92 520.618C1082.17 520.618 1107.92 501.452 1117.69 474.636C1120.41 467.163 1121.9 459.096 1121.9 450.7C1121.9 412.081 1090.57 380.76 1051.9 380.76" stroke="#1E52A6" stroke-width="0.5" stroke-miterlimit="10"/>
<path d="M1051.92 534.685C1082.17 534.685 1107.92 515.519 1117.69 488.703C1120.41 481.23 1121.9 473.163 1121.9 464.767C1121.9 426.148 1090.57 394.827 1051.9 394.827" stroke="#1E52A6" stroke-width="0.5" stroke-miterlimit="10"/>
<path d="M1051.92 548.731C1082.17 548.731 1107.92 529.564 1117.69 502.749C1120.41 495.275 1121.9 487.209 1121.9 478.812C1121.9 440.194 1090.57 408.872 1051.9 408.872" stroke="#1E52A6" stroke-width="0.5" stroke-miterlimit="10"/>
<path d="M1051.92 562.798C1082.17 562.798 1107.92 543.631 1117.69 516.816C1120.41 509.342 1121.9 501.276 1121.9 492.879C1121.9 454.261 1090.57 422.939 1051.9 422.939" stroke="#1E52A6" stroke-width="0.5" stroke-miterlimit="10"/>
<path d="M1051.92 576.843C1082.17 576.843 1107.92 557.676 1117.69 530.861C1120.41 523.388 1121.9 515.321 1121.9 506.925C1121.9 468.306 1090.57 436.984 1051.9 436.984" stroke="#1E52A6" stroke-width="0.5" stroke-miterlimit="10"/>
<path d="M1051.92 590.91C1082.17 590.91 1107.92 571.744 1117.69 544.928C1120.41 537.455 1121.9 529.388 1121.9 520.992C1121.9 482.373 1090.57 451.052 1051.9 451.052" stroke="#1E52A6" stroke-width="0.5" stroke-miterlimit="10"/>
<path d="M1051.92 604.977C1082.17 604.977 1107.92 585.811 1117.69 558.995C1120.41 551.522 1121.9 543.455 1121.9 535.059C1121.9 496.44 1090.57 465.119 1051.9 465.119" stroke="#1E52A6" stroke-width="0.5" stroke-miterlimit="10"/>
<path d="M1051.92 619.023C1082.17 619.023 1107.92 599.856 1117.69 573.04C1120.41 565.567 1121.9 557.501 1121.9 549.104C1121.9 510.485 1090.57 479.164 1051.9 479.164" stroke="#1E52A6" stroke-width="0.5" stroke-miterlimit="10"/>
<path d="M1051.92 633.09C1082.17 633.09 1107.92 613.923 1117.69 587.108C1120.41 579.634 1121.9 571.568 1121.9 563.171C1121.9 524.553 1090.57 493.231 1051.9 493.231" stroke="#1E52A6" stroke-width="0.5" stroke-miterlimit="10"/>
<path d="M1051.92 647.135C1082.17 647.135 1107.92 627.968 1117.69 601.153C1120.41 593.68 1121.9 585.613 1121.9 577.217C1121.9 538.598 1090.57 507.276 1051.9 507.276" stroke="#1E52A6" stroke-width="0.5" stroke-miterlimit="10"/>
<path d="M1051.92 661.202C1082.17 661.202 1107.92 642.036 1117.69 615.22C1120.41 607.747 1121.9 599.68 1121.9 591.284C1121.9 552.665 1090.57 521.344 1051.9 521.344" stroke="#1E52A6" stroke-width="0.5" stroke-miterlimit="10"/>
<path d="M1051.92 675.269C1082.17 675.269 1107.92 656.103 1117.69 629.287C1120.41 621.814 1121.9 613.747 1121.9 605.351C1121.9 566.732 1090.57 535.411 1051.9 535.411" stroke="#1E52A6" stroke-width="0.5" stroke-miterlimit="10"/>
<path d="M1051.92 689.314C1082.17 689.314 1107.92 670.148 1117.69 643.332C1120.41 635.859 1121.9 627.793 1121.9 619.396C1121.9 580.777 1090.57 549.456 1051.9 549.456" stroke="#1E52A6" stroke-width="0.5" stroke-miterlimit="10"/>
<path d="M1051.92 703.382C1082.17 703.382 1107.92 684.215 1117.69 657.4C1120.41 649.926 1121.9 641.86 1121.9 633.463C1121.9 594.845 1090.57 563.523 1051.9 563.523" stroke="#1E52A6" stroke-width="0.5" stroke-miterlimit="10"/>
</g>
<mask id="mask1_0_1" style="mask-type:luminance" maskUnits="userSpaceOnUse" x="0" y="70" width="70" height="501">
<path d="M0 70.5H70V570.5H0V70.5Z" fill="white"/>
</mask>
<g mask="url(#mask1_0_1)">
<path d="M69.082 70.7323C38.8348 70.7323 13.082 51.5657 3.30673 24.7502C0.587628 17.277 -0.895507 9.21033 -0.895507 0.813982C-0.895507 -37.8048 30.4303 -69.1263 69.1045 -69.1263" stroke="#1E52A6" stroke-width="0.5" stroke-miterlimit="10"/>
<path d="M69.082 84.7994C38.8348 84.7994 13.082 65.6329 3.30673 38.8173C0.587628 31.3441 -0.895507 23.2775 -0.895507 14.8811C-0.895507 -23.7377 30.4303 -55.0591 69.1045 -55.0591" stroke="#1E52A6" stroke-width="0.5" stroke-miterlimit="10"/>
<path d="M69.082 98.8446C38.8348 98.8446 13.082 79.6781 3.30673 52.8625C0.587628 45.3893 -0.895507 37.3227 -0.895507 28.9263C-0.895507 -9.69249 30.4303 -41.0139 69.1045 -41.0139" stroke="#1E52A6" stroke-width="0.5" stroke-miterlimit="10"/>
<path d="M69.082 112.912C38.8348 112.912 13.082 93.7452 3.30673 66.9297C0.587628 59.4565 -0.895507 51.3898 -0.895507 42.9935C-0.895507 4.37468 30.4303 -26.9468 69.1045 -26.9468" stroke="#1E52A6" stroke-width="0.5" stroke-miterlimit="10"/>
<path d="M69.082 126.979C38.8348 126.979 13.082 107.812 3.30673 80.9969C0.587628 73.5237 -0.895507 65.457 -0.895507 57.0607C-0.895507 18.4419 30.4303 -12.8796 69.1045 -12.8796" stroke="#1E52A6" stroke-width="0.5" stroke-miterlimit="10"/>
<path d="M69.082 141.024C38.8348 141.024 13.082 121.858 3.30673 95.042C0.587628 87.5688 -0.895507 79.5022 -0.895507 71.1058C-0.895507 32.487 30.4303 1.16559 69.1045 1.16559" stroke="#1E52A6" stroke-width="0.5" stroke-miterlimit="10"/>
<path d="M69.082 155.091C38.8348 155.091 13.082 135.925 3.30673 109.109C0.587628 101.636 -0.895507 93.5694 -0.895507 85.1731C-0.895507 46.5543 30.4303 15.2328 69.1045 15.2328" stroke="#1E52A6" stroke-width="0.5" stroke-miterlimit="10"/>
<path d="M69.082 169.137C38.8348 169.137 13.082 149.97 3.30673 123.154C0.587628 115.681 -0.895507 107.615 -0.895507 99.2183C-0.895507 60.5995 30.4303 29.278 69.1045 29.278" stroke="#1E52A6" stroke-width="0.5" stroke-miterlimit="10"/>
<path d="M69.082 183.204C38.8348 183.204 13.082 164.037 3.30673 137.222C0.587628 129.748 -0.895507 121.682 -0.895507 113.285C-0.895507 74.6666 30.4303 43.3452 69.1045 43.3452" stroke="#1E52A6" stroke-width="0.5" stroke-miterlimit="10"/>
<path d="M69.082 197.271C38.8348 197.271 13.082 178.104 3.30673 151.289C0.587628 143.816 -0.895507 135.749 -0.895507 127.353C-0.895507 88.7338 30.4303 57.4124 69.1045 57.4124" stroke="#1E52A6" stroke-width="0.5" stroke-miterlimit="10"/>
<path d="M69.082 211.316C38.8348 211.316 13.082 192.15 3.30673 165.334C0.587628 157.861 -0.895507 149.794 -0.895507 141.398C-0.895507 102.779 30.4303 71.4576 69.1045 71.4576" stroke="#1E52A6" stroke-width="0.5" stroke-miterlimit="10"/>
<path d="M69.082 225.383C38.8348 225.383 13.082 206.217 3.30673 179.401C0.587628 171.928 -0.895507 163.861 -0.895507 155.465C-0.895507 116.846 30.4303 85.5247 69.1045 85.5247" stroke="#1E52A6" stroke-width="0.5" stroke-miterlimit="10"/>
<path d="M69.082 239.428C38.8348 239.428 13.082 220.262 3.30673 193.446C0.587628 185.973 -0.895507 177.907 -0.895507 169.51C-0.895507 130.891 30.4303 99.5699 69.1045 99.5699" stroke="#1E52A6" stroke-width="0.5" stroke-miterlimit="10"/>
<path d="M69.082 253.496C38.8348 253.496 13.082 234.329 3.30673 207.514C0.587628 200.04 -0.895507 191.974 -0.895507 183.577C-0.895507 144.959 30.4303 113.637 69.1045 113.637" stroke="#1E52A6" stroke-width="0.5" stroke-miterlimit="10"/>
<path d="M69.082 267.563C38.8348 267.563 13.082 248.396 3.30673 221.581C0.587628 214.108 -0.895507 206.041 -0.895507 197.645C-0.895507 159.026 30.4303 127.704 69.1045 127.704" stroke="#1E52A6" stroke-width="0.5" stroke-miterlimit="10"/>
<path d="M69.082 281.608C38.8348 281.608 13.082 262.442 3.30673 235.626C0.587628 228.153 -0.895507 220.086 -0.895507 211.69C-0.895507 173.071 30.4303 141.75 69.1045 141.75" stroke="#1E52A6" stroke-width="0.5" stroke-miterlimit="10"/>
<path d="M69.082 295.675C38.8348 295.675 13.082 276.509 3.30673 249.693C0.587628 242.22 -0.895507 234.153 -0.895507 225.757C-0.895507 187.138 30.4303 155.817 69.1045 155.817" stroke="#1E52A6" stroke-width="0.5" stroke-miterlimit="10"/>
<path d="M69.082 309.742C38.8348 309.742 13.082 290.576 3.30673 263.76C0.587628 256.287 -0.895507 248.22 -0.895507 239.824C-0.895507 201.205 30.4303 169.884 69.1045 169.884" stroke="#1E52A6" stroke-width="0.5" stroke-miterlimit="10"/>
<path d="M69.082 323.788C38.8348 323.788 13.082 304.621 3.30673 277.806C0.587628 270.332 -0.895507 262.266 -0.895507 253.869C-0.895507 215.251 30.4303 183.929 69.1045 183.929" stroke="#1E52A6" stroke-width="0.5" stroke-miterlimit="10"/>
<path d="M69.082 337.855C38.8348 337.855 13.082 318.688 3.30673 291.873C0.587628 284.4 -0.895507 276.333 -0.895507 267.937C-0.895507 229.318 30.4303 197.996 69.1045 197.996" stroke="#1E52A6" stroke-width="0.5" stroke-miterlimit="10"/>
<path d="M69.082 351.9C38.8348 351.9 13.082 332.733 3.30673 305.918C0.587628 298.445 -0.895507 290.378 -0.895507 281.982C-0.895507 243.363 30.4303 212.041 69.1045 212.041" stroke="#1E52A6" stroke-width="0.5" stroke-miterlimit="10"/>
<path d="M69.082 365.967C38.8348 365.967 13.082 346.801 3.30673 319.985C0.587628 312.512 -0.895507 304.445 -0.895507 296.049C-0.895507 257.43 30.4303 226.109 69.1045 226.109" stroke="#1E52A6" stroke-width="0.5" stroke-miterlimit="10"/>
<path d="M69.082 380.034C38.8348 380.034 13.082 360.868 3.30673 334.052C0.587628 326.579 -0.895507 318.512 -0.895507 310.116C-0.895507 271.497 30.4303 240.176 69.1045 240.176" stroke="#1E52A6" stroke-width="0.5" stroke-miterlimit="10"/>
<path d="M69.082 394.08C38.8348 394.08 13.082 374.913 3.30673 348.097C0.587628 340.624 -0.895507 332.558 -0.895507 324.161C-0.895507 285.542 30.4303 254.221 69.1045 254.221" stroke="#1E52A6" stroke-width="0.5" stroke-miterlimit="10"/>
<path d="M69.082 408.147C38.8348 408.147 13.082 388.98 3.30673 362.165C0.587628 354.691 -0.895507 346.625 -0.895507 338.228C-0.895507 299.61 30.4303 268.288 69.1045 268.288" stroke="#1E52A6" stroke-width="0.5" stroke-miterlimit="10"/>
<path d="M69.082 422.214C38.8348 422.214 13.082 403.047 3.30673 376.232C0.587628 368.759 -0.895507 360.692 -0.895507 352.296C-0.895507 313.677 30.4303 282.355 69.1045 282.355" stroke="#1E52A6" stroke-width="0.5" stroke-miterlimit="10"/>
<path d="M69.082 436.259C38.8348 436.259 13.082 417.093 3.30673 390.277C0.587628 382.804 -0.895507 374.737 -0.895507 366.341C-0.895507 327.722 30.4303 296.401 69.1045 296.401" stroke="#1E52A6" stroke-width="0.5" stroke-miterlimit="10"/>
<path d="M69.082 450.326C38.8348 450.326 13.082 431.16 3.30673 404.344C0.587628 396.871 -0.895507 388.804 -0.895507 380.408C-0.895507 341.789 30.4303 310.468 69.1045 310.468" stroke="#1E52A6" stroke-width="0.5" stroke-miterlimit="10"/>
<path d="M69.082 464.371C38.8348 464.371 13.082 445.205 3.30673 418.389C0.587628 410.916 -0.895507 402.85 -0.895507 394.453C-0.895507 355.834 30.4303 324.513 69.1045 324.513" stroke="#1E52A6" stroke-width="0.5" stroke-miterlimit="10"/>
<path d="M69.082 478.439C38.8348 478.439 13.082 459.272 3.30673 432.457C0.587628 424.983 -0.895507 416.917 -0.895507 408.52C-0.895507 369.902 30.4303 338.58 69.1045 338.58" stroke="#1E52A6" stroke-width="0.5" stroke-miterlimit="10"/>
<path d="M69.082 492.506C38.8348 492.506 13.082 473.339 3.30673 446.524C0.587628 439.051 -0.895507 430.984 -0.895507 422.588C-0.895507 383.969 30.4303 352.647 69.1045 352.647" stroke="#1E52A6" stroke-width="0.5" stroke-miterlimit="10"/>
<path d="M69.082 506.551C38.8348 506.551 13.082 487.384 3.30673 460.569C0.587628 453.096 -0.895507 445.029 -0.895507 436.633C-0.895507 398.014 30.4303 366.692 69.1045 366.692" stroke="#1E52A6" stroke-width="0.5" stroke-miterlimit="10"/>
<path d="M69.082 520.618C38.8348 520.618 13.082 501.452 3.30673 474.636C0.587628 467.163 -0.895507 459.096 -0.895507 450.7C-0.895507 412.081 30.4303 380.76 69.1045 380.76" stroke="#1E52A6" stroke-width="0.5" stroke-miterlimit="10"/>
<path d="M69.082 534.685C38.8348 534.685 13.082 515.519 3.30673 488.703C0.587628 481.23 -0.895507 473.163 -0.895507 464.767C-0.895507 426.148 30.4303 394.827 69.1045 394.827" stroke="#1E52A6" stroke-width="0.5" stroke-miterlimit="10"/>
<path d="M69.082 548.731C38.8348 548.731 13.082 529.564 3.30673 502.749C0.587628 495.275 -0.895507 487.209 -0.895507 478.812C-0.895507 440.194 30.4303 408.872 69.1045 408.872" stroke="#1E52A6" stroke-width="0.5" stroke-miterlimit="10"/>
<path d="M69.082 562.798C38.8348 562.798 13.082 543.631 3.30673 516.816C0.587628 509.342 -0.895507 501.276 -0.895507 492.879C-0.895507 454.261 30.4303 422.939 69.1045 422.939" stroke="#1E52A6" stroke-width="0.5" stroke-miterlimit="10"/>
<path d="M69.082 576.843C38.8348 576.843 13.082 557.676 3.30673 530.861C0.587628 523.388 -0.895507 515.321 -0.895507 506.925C-0.895507 468.306 30.4303 436.984 69.1045 436.984" stroke="#1E52A6" stroke-width="0.5" stroke-miterlimit="10"/>
<path d="M69.082 590.91C38.8348 590.91 13.082 571.744 3.30673 544.928C0.587628 537.455 -0.895507 529.388 -0.895507 520.992C-0.895507 482.373 30.4303 451.052 69.1045 451.052" stroke="#1E52A6" stroke-width="0.5" stroke-miterlimit="10"/>
<path d="M69.082 604.977C38.8348 604.977 13.082 585.811 3.30673 558.995C0.587628 551.522 -0.895507 543.455 -0.895507 535.059C-0.895507 496.44 30.4303 465.119 69.1045 465.119" stroke="#1E52A6" stroke-width="0.5" stroke-miterlimit="10"/>
<path d="M69.082 619.023C38.8348 619.023 13.082 599.856 3.30673 573.04C0.587628 565.567 -0.895507 557.501 -0.895507 549.104C-0.895507 510.485 30.4303 479.164 69.1045 479.164" stroke="#1E52A6" stroke-width="0.5" stroke-miterlimit="10"/>
<path d="M69.082 633.09C38.8348 633.09 13.082 613.923 3.30673 587.108C0.587628 579.634 -0.895507 571.568 -0.895507 563.171C-0.895507 524.553 30.4303 493.231 69.1045 493.231" stroke="#1E52A6" stroke-width="0.5" stroke-miterlimit="10"/>
<path d="M69.082 647.135C38.8348 647.135 13.082 627.968 3.30673 601.153C0.587628 593.68 -0.895507 585.613 -0.895507 577.217C-0.895507 538.598 30.4303 507.276 69.1045 507.276" stroke="#1E52A6" stroke-width="0.5" stroke-miterlimit="10"/>
<path d="M69.082 661.202C38.8348 661.202 13.082 642.036 3.30673 615.22C0.587628 607.747 -0.895507 599.68 -0.895507 591.284C-0.895507 552.665 30.4303 521.344 69.1045 521.344" stroke="#1E52A6" stroke-width="0.5" stroke-miterlimit="10"/>
<path d="M69.082 675.269C38.8348 675.269 13.082 656.103 3.30673 629.287C0.587628 621.814 -0.895507 613.747 -0.895507 605.351C-0.895507 566.732 30.4303 535.411 69.1045 535.411" stroke="#1E52A6" stroke-width="0.5" stroke-miterlimit="10"/>
<path d="M69.082 689.314C38.8348 689.314 13.082 670.148 3.30673 643.332C0.587628 635.859 -0.895507 627.793 -0.895507 619.396C-0.895507 580.777 30.4303 549.456 69.1045 549.456" stroke="#1E52A6" stroke-width="0.5" stroke-miterlimit="10"/>
<path d="M69.082 703.382C38.8348 703.382 13.082 684.215 3.30673 657.4C0.587628 649.926 -0.895507 641.86 -0.895507 633.463C-0.895507 594.845 30.4303 563.523 69.1045 563.523" stroke="#1E52A6" stroke-width="0.5" stroke-miterlimit="10"/>
</g>
<mask id="mask2_0_1" style="mask-type:luminance" maskUnits="userSpaceOnUse" x="70" y="0" width="981" height="71">
<path d="M1051 0.5H70V70.5H1051V0.5Z" fill="white"/>
</mask>
<g mask="url(#mask2_0_1)">
<path d="M70.7931 70.5C70.7931 40.018 51.5841 14.0652 24.7092 4.214C17.2195 1.47379 9.13501 -0.020874 0.698051 -0.020874C-38.0062 -0.020874 -69.397 31.5482 -69.397 70.5226" stroke="#1E52A6" stroke-width="0.5" stroke-miterlimit="10"/>
<path d="M86.3453 70.5C86.3453 40.018 67.1364 14.0652 40.2615 4.214C32.7718 1.47379 24.6873 -0.020874 16.2723 -0.020874C-22.476 -0.020874 -53.8447 31.5482 -53.8447 70.5" stroke="#1E52A6" stroke-width="0.5" stroke-miterlimit="10"/>
<path d="M101.898 70.5C101.898 40.018 82.6886 14.0652 55.8137 4.214C48.324 1.47379 40.2395 -0.020874 31.8246 -0.020874C-6.92374 -0.020874 -38.2925 31.5482 -38.2925 70.5" stroke="#1E52A6" stroke-width="0.5" stroke-miterlimit="10"/>
<path d="M117.428 70.5C117.428 40.018 98.2189 14.0652 71.344 4.214C63.8543 1.47379 55.7698 -0.020874 47.3548 -0.020874C8.62856 -0.020874 -22.7622 31.5482 -22.7622 70.5" stroke="#1E52A6" stroke-width="0.5" stroke-miterlimit="10"/>
<path d="M132.98 70.5C132.98 40.018 113.771 14.0652 86.8958 4.214C79.406 1.47379 71.3215 -0.020874 62.9066 -0.020874C24.1803 -0.020874 -7.21045 31.5482 -7.21045 70.5" stroke="#1E52A6" stroke-width="0.5" stroke-miterlimit="10"/>
<path d="M148.532 70.5C148.532 40.018 129.323 14.0652 102.448 4.214C94.9583 1.47379 86.8738 -0.020874 78.4588 -0.020874C39.7326 -0.020874 8.3418 31.5482 8.3418 70.5" stroke="#1E52A6" stroke-width="0.5" stroke-miterlimit="10"/>
<path d="M164.084 70.5C164.084 40.018 144.875 14.0652 118 4.214C110.511 1.47379 102.426 -0.020874 94.0111 -0.020874C55.2848 -0.020874 23.894 31.5482 23.894 70.5" stroke="#1E52A6" stroke-width="0.5" stroke-miterlimit="10"/>
<path d="M179.636 70.5C179.636 40.018 160.427 14.0652 133.552 4.214C126.063 1.47379 117.978 -0.020874 109.563 -0.020874C70.859 -0.020874 39.4683 31.5482 39.4683 70.5226" stroke="#1E52A6" stroke-width="0.5" stroke-miterlimit="10"/>
<path d="M195.167 70.5C195.167 40.018 175.958 14.0652 149.083 4.214C141.593 1.47379 133.508 -0.020874 125.094 -0.020874C86.3893 -0.020874 54.9985 31.5482 54.9985 70.5226" stroke="#1E52A6" stroke-width="0.5" stroke-miterlimit="10"/>
<path d="M210.719 70.5C210.719 40.018 191.51 14.0652 164.635 4.214C157.145 1.47379 149.061 -0.020874 140.646 -0.020874C101.942 -0.020874 70.5508 31.5482 70.5508 70.5226" stroke="#1E52A6" stroke-width="0.5" stroke-miterlimit="10"/>
<path d="M226.271 70.5C226.271 40.018 207.062 14.0652 180.187 4.214C172.697 1.47379 164.613 -0.020874 156.198 -0.020874C117.494 -0.020874 86.103 31.5482 86.103 70.5226" stroke="#1E52A6" stroke-width="0.5" stroke-miterlimit="10"/>
<path d="M241.823 70.5C241.823 40.018 222.614 14.0652 195.739 4.214C188.25 1.47379 180.165 -0.020874 171.75 -0.020874C133.046 -0.020874 101.655 31.5482 101.655 70.5226" stroke="#1E52A6" stroke-width="0.5" stroke-miterlimit="10"/>
<path d="M257.376 70.5C257.376 40.018 238.167 14.0652 211.292 4.214C203.802 1.47379 195.717 -0.020874 187.303 -0.020874C148.598 -0.020874 117.208 31.5482 117.208 70.5226" stroke="#1E52A6" stroke-width="0.5" stroke-miterlimit="10"/>
<path d="M272.928 70.5C272.928 40.018 253.719 14.0652 226.844 4.214C219.354 1.47379 211.27 -0.020874 202.855 -0.020874C164.151 -0.020874 132.76 31.5482 132.76 70.5226" stroke="#1E52A6" stroke-width="0.5" stroke-miterlimit="10"/>
<path d="M288.458 70.5C288.458 40.018 269.249 14.0652 242.374 4.214C234.884 1.47379 226.8 -0.020874 218.385 -0.020874C179.68 -0.020874 148.29 31.5482 148.29 70.5226" stroke="#1E52A6" stroke-width="0.5" stroke-miterlimit="10"/>
<path d="M304.01 70.5C304.01 40.018 284.801 14.0652 257.926 4.214C250.436 1.47379 242.352 -0.020874 233.937 -0.020874C195.233 -0.020874 163.842 31.5482 163.842 70.5226" stroke="#1E52A6" stroke-width="0.5" stroke-miterlimit="10"/>
<path d="M319.562 70.5C319.562 40.018 300.353 14.0652 273.478 4.214C265.989 1.47379 257.904 -0.020874 249.489 -0.020874C210.785 -0.020874 179.394 31.5482 179.394 70.5226" stroke="#1E52A6" stroke-width="0.5" stroke-miterlimit="10"/>
<path d="M335.114 70.5C335.114 40.018 315.905 14.0652 289.03 4.214C281.541 1.47379 273.456 -0.020874 265.041 -0.020874C226.337 -0.020874 194.946 31.5482 194.946 70.5226" stroke="#1E52A6" stroke-width="0.5" stroke-miterlimit="10"/>
<path d="M350.667 70.5C350.667 40.018 331.458 14.0652 304.583 4.214C297.093 1.47379 289.008 -0.020874 280.594 -0.020874C241.889 -0.020874 210.499 31.5482 210.499 70.5226" stroke="#1E52A6" stroke-width="0.5" stroke-miterlimit="10"/>
<path d="M366.197 70.5C366.197 40.018 346.988 14.0652 320.113 4.214C312.623 1.47379 304.539 -0.020874 296.124 -0.020874C257.42 -0.020874 226.029 31.5482 226.029 70.5226" stroke="#1E52A6" stroke-width="0.5" stroke-miterlimit="10"/>
<path d="M381.749 70.5C381.749 40.018 362.54 14.0652 335.665 4.214C328.176 1.47379 320.091 -0.020874 311.676 -0.020874C272.972 -0.020874 241.581 31.5482 241.581 70.5226" stroke="#1E52A6" stroke-width="0.5" stroke-miterlimit="10"/>
<path d="M397.301 70.5C397.301 40.018 378.092 14.0652 351.217 4.214C343.728 1.47379 335.643 -0.020874 327.228 -0.020874C288.524 -0.020874 257.133 31.5482 257.133 70.5226" stroke="#1E52A6" stroke-width="0.5" stroke-miterlimit="10"/>
<path d="M412.854 70.5C412.854 40.018 393.645 14.0652 366.77 4.214C359.28 1.47379 351.195 -0.020874 342.781 -0.020874C304.076 -0.020874 272.686 31.5482 272.686 70.5226" stroke="#1E52A6" stroke-width="0.5" stroke-miterlimit="10"/>
<path d="M428.405 70.5C428.405 40.018 409.196 14.0652 382.322 4.214C374.832 1.47379 366.747 -0.020874 358.332 -0.020874C319.628 -0.020874 288.237 31.5482 288.237 70.5226" stroke="#1E52A6" stroke-width="0.5" stroke-miterlimit="10"/>
<path d="M443.958 70.5C443.958 40.018 424.749 14.0652 397.874 4.214C390.384 1.47379 382.3 -0.020874 373.885 -0.020874C335.18 -0.020874 303.79 31.5482 303.79 70.5226" stroke="#1E52A6" stroke-width="0.5" stroke-miterlimit="10"/>
<path d="M459.488 70.5C459.488 40.018 440.279 14.0652 413.404 4.214C405.914 1.47379 397.83 -0.020874 389.415 -0.020874C350.711 -0.020874 319.32 31.5482 319.32 70.5226" stroke="#1E52A6" stroke-width="0.5" stroke-miterlimit="10"/>
<path d="M475.04 70.5C475.04 40.018 455.831 14.0652 428.956 4.214C421.467 1.47379 413.382 -0.020874 404.967 -0.020874C366.263 -0.020874 334.872 31.5482 334.872 70.5226" stroke="#1E52A6" stroke-width="0.5" stroke-miterlimit="10"/>
<path d="M490.592 70.5C490.592 40.018 471.383 14.0652 444.509 4.214C437.019 1.47379 428.934 -0.020874 420.519 -0.020874C381.815 -0.020874 350.424 31.5482 350.424 70.5226" stroke="#1E52A6" stroke-width="0.5" stroke-miterlimit="10"/>
<path d="M506.145 70.5C506.145 40.018 486.936 14.0652 460.061 4.214C452.571 1.47379 444.487 -0.020874 436.072 -0.020874C397.367 -0.020874 365.977 31.5482 365.977 70.5226" stroke="#1E52A6" stroke-width="0.5" stroke-miterlimit="10"/>
<path d="M521.697 70.5C521.697 40.018 502.488 14.0652 475.613 4.214C468.123 1.47379 460.039 -0.020874 451.624 -0.020874C412.92 -0.020874 381.529 31.5482 381.529 70.5226" stroke="#1E52A6" stroke-width="0.5" stroke-miterlimit="10"/>
<path d="M537.227 70.5C537.227 40.018 518.018 14.0652 491.143 4.214C483.653 1.47379 475.569 -0.020874 467.154 -0.020874C428.449 -0.020874 397.059 31.5482 397.059 70.5226" stroke="#1E52A6" stroke-width="0.5" stroke-miterlimit="10"/>
<path d="M552.779 70.5C552.779 40.018 533.57 14.0652 506.695 4.214C499.205 1.47379 491.121 -0.020874 482.706 -0.020874C444.002 -0.020874 412.611 31.5482 412.611 70.5226" stroke="#1E52A6" stroke-width="0.5" stroke-miterlimit="10"/>
<path d="M568.331 70.5C568.331 40.018 549.122 14.0652 522.247 4.214C514.758 1.47379 506.673 -0.020874 498.258 -0.020874C459.554 -0.020874 428.163 31.5482 428.163 70.5226" stroke="#1E52A6" stroke-width="0.5" stroke-miterlimit="10"/>
<path d="M583.883 70.5C583.883 40.018 564.674 14.0652 537.8 4.214C530.31 1.47379 522.225 -0.020874 513.81 -0.020874C475.106 -0.020874 443.715 31.5482 443.715 70.5226" stroke="#1E52A6" stroke-width="0.5" stroke-miterlimit="10"/>
<path d="M599.436 70.5C599.436 40.018 580.227 14.0652 553.352 4.214C545.862 1.47379 537.778 -0.020874 529.363 -0.020874C490.658 -0.020874 459.268 31.5482 459.268 70.5226" stroke="#1E52A6" stroke-width="0.5" stroke-miterlimit="10"/>
<path d="M614.988 70.5C614.988 40.018 595.779 14.0652 568.904 4.214C561.414 1.47379 553.33 -0.020874 544.915 -0.020874C506.211 -0.020874 474.82 31.5482 474.82 70.5226" stroke="#1E52A6" stroke-width="0.5" stroke-miterlimit="10"/>
<path d="M630.518 70.5C630.518 40.018 611.309 14.0652 584.434 4.214C576.945 1.47379 568.86 -0.020874 560.445 -0.020874C521.741 -0.020874 490.35 31.5482 490.35 70.5226" stroke="#1E52A6" stroke-width="0.5" stroke-miterlimit="10"/>
<path d="M646.07 70.5C646.07 40.018 626.861 14.0652 599.987 4.214C592.497 1.47379 584.412 -0.020874 575.997 -0.020874C537.293 -0.020874 505.902 31.5482 505.902 70.5226" stroke="#1E52A6" stroke-width="0.5" stroke-miterlimit="10"/>
<path d="M661.622 70.5C661.622 40.018 642.413 14.0652 615.538 4.214C608.049 1.47379 599.964 -0.020874 591.549 -0.020874C552.845 -0.020874 521.454 31.5482 521.454 70.5226" stroke="#1E52A6" stroke-width="0.5" stroke-miterlimit="10"/>
<path d="M677.174 70.5C677.174 40.018 657.965 14.0652 631.091 4.214C623.601 1.47379 615.516 -0.020874 607.101 -0.020874C568.397 -0.020874 537.006 31.5482 537.006 70.5226" stroke="#1E52A6" stroke-width="0.5" stroke-miterlimit="10"/>
<path d="M692.727 70.5C692.727 40.018 673.518 14.0652 646.643 4.214C639.153 1.47379 631.069 -0.020874 622.654 -0.020874C583.949 -0.020874 552.559 31.5482 552.559 70.5226" stroke="#1E52A6" stroke-width="0.5" stroke-miterlimit="10"/>
<path d="M708.257 70.5C708.257 40.018 689.048 14.0652 662.173 4.214C654.683 1.47379 646.599 -0.020874 638.184 -0.020874C599.48 -0.020874 568.089 31.5482 568.089 70.5226" stroke="#1E52A6" stroke-width="0.5" stroke-miterlimit="10"/>
<path d="M723.809 70.5C723.809 40.018 704.6 14.0652 677.725 4.214C670.236 1.47379 662.151 -0.020874 653.736 -0.020874C615.032 -0.020874 583.641 31.5482 583.641 70.5226" stroke="#1E52A6" stroke-width="0.5" stroke-miterlimit="10"/>
<path d="M739.361 70.5C739.361 40.018 720.152 14.0652 693.278 4.214C685.788 1.47379 677.703 -0.020874 669.288 -0.020874C630.584 -0.020874 599.193 31.5482 599.193 70.5226" stroke="#1E52A6" stroke-width="0.5" stroke-miterlimit="10"/>
<path d="M754.914 70.5C754.914 40.018 735.705 14.0652 708.83 4.214C701.34 1.47379 693.256 -0.020874 684.841 -0.020874C646.136 -0.020874 614.746 31.5482 614.746 70.5226" stroke="#1E52A6" stroke-width="0.5" stroke-miterlimit="10"/>
<path d="M770.466 70.5C770.466 40.018 751.257 14.0652 724.382 4.214C716.892 1.47379 708.808 -0.020874 700.393 -0.020874C661.689 -0.020874 630.298 31.5482 630.298 70.5226" stroke="#1E52A6" stroke-width="0.5" stroke-miterlimit="10"/>
<path d="M786.018 70.5C786.018 40.018 766.809 14.0652 739.934 4.214C732.444 1.47379 724.36 -0.020874 715.945 -0.020874C677.24 -0.020874 645.85 31.5482 645.85 70.5226" stroke="#1E52A6" stroke-width="0.5" stroke-miterlimit="10"/>
<path d="M801.548 70.5C801.548 40.018 782.339 14.0652 755.464 4.214C747.974 1.47379 739.89 -0.020874 731.475 -0.020874C692.771 -0.020874 661.38 31.5482 661.38 70.5226" stroke="#1E52A6" stroke-width="0.5" stroke-miterlimit="10"/>
<path d="M817.1 70.5C817.1 40.018 797.891 14.0652 771.016 4.214C763.527 1.47379 755.442 -0.020874 747.027 -0.020874C708.323 -0.020874 676.932 31.5482 676.932 70.5226" stroke="#1E52A6" stroke-width="0.5" stroke-miterlimit="10"/>
<path d="M832.652 70.5C832.652 40.018 813.443 14.0652 786.569 4.214C779.079 1.47379 770.994 -0.020874 762.579 -0.020874C723.875 -0.020874 692.484 31.5482 692.484 70.5226" stroke="#1E52A6" stroke-width="0.5" stroke-miterlimit="10"/>
<path d="M848.205 70.5C848.205 40.018 828.996 14.0652 802.121 4.214C794.631 1.47379 786.547 -0.020874 778.132 -0.020874C739.427 -0.020874 708.037 31.5482 708.037 70.5226" stroke="#1E52A6" stroke-width="0.5" stroke-miterlimit="10"/>
<path d="M863.757 70.5C863.757 40.018 844.548 14.0652 817.673 4.214C810.183 1.47379 802.099 -0.020874 793.684 -0.020874C754.98 -0.020874 723.589 31.5482 723.589 70.5226" stroke="#1E52A6" stroke-width="0.5" stroke-miterlimit="10"/>
<path d="M879.287 70.5C879.287 40.018 860.078 14.0652 833.203 4.214C825.714 1.47379 817.629 -0.020874 809.214 -0.020874C770.51 -0.020874 739.119 31.5482 739.119 70.5226" stroke="#1E52A6" stroke-width="0.5" stroke-miterlimit="10"/>
<path d="M894.839 70.5C894.839 40.018 875.631 14.0652 848.756 4.214C841.266 1.47379 833.181 -0.020874 824.766 -0.020874C786.062 -0.020874 754.671 31.5482 754.671 70.5226" stroke="#1E52A6" stroke-width="0.5" stroke-miterlimit="10"/>
<path d="M910.392 70.5C910.392 40.018 891.183 14.0652 864.308 4.214C856.818 1.47379 848.734 -0.020874 840.319 -0.020874C801.614 -0.020874 770.224 31.5482 770.224 70.5226" stroke="#1E52A6" stroke-width="0.5" stroke-miterlimit="10"/>
<path d="M925.943 70.5C925.943 40.018 906.734 14.0652 879.86 4.214C872.37 1.47379 864.285 -0.020874 855.87 -0.020874C817.166 -0.020874 785.775 31.5482 785.775 70.5226" stroke="#1E52A6" stroke-width="0.5" stroke-miterlimit="10"/>
<path d="M941.496 70.5C941.496 40.018 922.287 14.0652 895.412 4.214C887.923 1.47379 879.838 -0.020874 871.423 -0.020874C832.719 -0.020874 801.328 31.5482 801.328 70.5226" stroke="#1E52A6" stroke-width="0.5" stroke-miterlimit="10"/>
<path d="M957.048 70.5C957.048 40.018 937.839 14.0652 910.964 4.214C903.474 1.47379 895.39 -0.020874 886.975 -0.020874C848.271 -0.020874 816.88 31.5482 816.88 70.5226" stroke="#1E52A6" stroke-width="0.5" stroke-miterlimit="10"/>
<path d="M972.578 70.5C972.578 40.018 953.369 14.0652 926.494 4.214C919.005 1.47379 910.92 -0.020874 902.505 -0.020874C863.801 -0.020874 832.41 31.5482 832.41 70.5226" stroke="#1E52A6" stroke-width="0.5" stroke-miterlimit="10"/>
<path d="M988.13 70.5C988.13 40.018 968.921 14.0652 942.047 4.214C934.557 1.47379 926.472 -0.020874 918.057 -0.020874C879.353 -0.020874 847.962 31.5482 847.962 70.5226" stroke="#1E52A6" stroke-width="0.5" stroke-miterlimit="10"/>
<path d="M1003.68 70.5C1003.68 40.018 984.474 14.0652 957.599 4.214C950.109 1.47379 942.025 -0.020874 933.61 -0.020874C894.905 -0.020874 863.515 31.5482 863.515 70.5226" stroke="#1E52A6" stroke-width="0.5" stroke-miterlimit="10"/>
<path d="M1019.23 70.5C1019.23 40.018 1000.03 14.0652 973.151 4.214C965.661 1.47379 957.577 -0.020874 949.162 -0.020874C910.458 -0.020874 879.067 31.5482 879.067 70.5226" stroke="#1E52A6" stroke-width="0.5" stroke-miterlimit="10"/>
<path d="M1034.79 70.5C1034.79 40.018 1015.58 14.0652 988.703 4.214C981.214 1.47379 973.129 -0.020874 964.714 -0.020874C926.01 -0.020874 894.619 31.5482 894.619 70.5226" stroke="#1E52A6" stroke-width="0.5" stroke-miterlimit="10"/>
<path d="M1050.32 70.5C1050.32 40.018 1031.11 14.0652 1004.23 4.214C996.744 1.47379 988.659 -0.020874 980.244 -0.020874C941.54 -0.020874 910.149 31.5482 910.149 70.5226" stroke="#1E52A6" stroke-width="0.5" stroke-miterlimit="10"/>
<path d="M1065.87 70.5C1065.87 40.018 1046.66 14.0652 1019.79 4.214C1012.3 1.47379 1004.21 -0.020874 995.796 -0.020874C957.092 -0.020874 925.701 31.5482 925.701 70.5226" stroke="#1E52A6" stroke-width="0.5" stroke-miterlimit="10"/>
<path d="M1081.42 70.5C1081.42 40.018 1062.21 14.0652 1035.34 4.214C1027.85 1.47379 1019.76 -0.020874 1011.35 -0.020874C972.644 -0.020874 941.253 31.5482 941.253 70.5226" stroke="#1E52A6" stroke-width="0.5" stroke-miterlimit="10"/>
<path d="M1096.97 70.5C1096.97 40.018 1077.76 14.0652 1050.89 4.214C1043.4 1.47379 1035.32 -0.020874 1026.9 -0.020874C988.196 -0.020874 956.806 31.5482 956.806 70.5226" stroke="#1E52A6" stroke-width="0.5" stroke-miterlimit="10"/>
<path d="M1112.53 70.5C1112.53 40.018 1093.32 14.0652 1066.44 4.214C1058.95 1.47379 1050.87 -0.020874 1042.45 -0.020874C1003.75 -0.020874 972.358 31.5482 972.358 70.5226" stroke="#1E52A6" stroke-width="0.5" stroke-miterlimit="10"/>
<path d="M1128.08 70.5C1128.08 40.018 1108.87 14.0652 1081.99 4.214C1074.5 1.47379 1066.42 -0.020874 1058.01 -0.020874C1019.3 -0.020874 987.91 31.5482 987.91 70.5226" stroke="#1E52A6" stroke-width="0.5" stroke-miterlimit="10"/>
<path d="M1143.61 70.5C1143.61 40.018 1124.4 14.0652 1097.52 4.214C1090.03 1.47379 1081.95 -0.020874 1073.54 -0.020874C1034.83 -0.020874 1003.44 31.5482 1003.44 70.5226" stroke="#1E52A6" stroke-width="0.5" stroke-miterlimit="10"/>
<path d="M1159.16 70.5C1159.16 40.018 1139.95 14.0652 1113.08 4.214C1105.59 1.47379 1097.5 -0.020874 1089.09 -0.020874C1050.38 -0.020874 1018.99 31.5482 1018.99 70.5226" stroke="#1E52A6" stroke-width="0.5" stroke-miterlimit="10"/>
<path d="M1174.71 70.5C1174.71 40.018 1155.5 14.0652 1128.63 4.214C1121.14 1.47379 1113.05 -0.020874 1104.64 -0.020874C1065.94 -0.020874 1034.54 31.5482 1034.54 70.5226" stroke="#1E52A6" stroke-width="0.5" stroke-miterlimit="10"/>
<path d="M1190.26 70.5C1190.26 40.018 1171.06 14.0652 1144.18 4.214C1136.69 1.47379 1128.61 -0.020874 1120.19 -0.020874C1081.49 -0.020874 1050.1 31.5482 1050.1 70.5226" stroke="#1E52A6" stroke-width="0.5" stroke-miterlimit="10"/>
</g>
<mask id="mask3_0_1" style="mask-type:luminance" maskUnits="userSpaceOnUse" x="70" y="570" width="981" height="71">
<path d="M1051 640.5H70V570.5H1051V640.5Z" fill="white"/>
</mask>
<g mask="url(#mask3_0_1)">
<path d="M70.7931 570.5C70.7931 600.982 51.5841 626.935 24.7092 636.786C17.2195 639.526 9.13501 641.021 0.698051 641.021C-38.0062 641.021 -69.397 609.452 -69.397 570.477" stroke="#1E52A6" stroke-width="0.5" stroke-miterlimit="10"/>
<path d="M86.3453 570.5C86.3453 600.982 67.1364 626.935 40.2615 636.786C32.7718 639.526 24.6873 641.021 16.2723 641.021C-22.476 641.021 -53.8447 609.452 -53.8447 570.5" stroke="#1E52A6" stroke-width="0.5" stroke-miterlimit="10"/>
<path d="M101.898 570.5C101.898 600.982 82.6886 626.935 55.8137 636.786C48.324 639.526 40.2395 641.021 31.8246 641.021C-6.92374 641.021 -38.2925 609.452 -38.2925 570.5" stroke="#1E52A6" stroke-width="0.5" stroke-miterlimit="10"/>
<path d="M117.428 570.5C117.428 600.982 98.2189 626.935 71.344 636.786C63.8543 639.526 55.7698 641.021 47.3548 641.021C8.62856 641.021 -22.7622 609.452 -22.7622 570.5" stroke="#1E52A6" stroke-width="0.5" stroke-miterlimit="10"/>
<path d="M132.98 570.5C132.98 600.982 113.771 626.935 86.8958 636.786C79.406 639.526 71.3215 641.021 62.9066 641.021C24.1803 641.021 -7.21045 609.452 -7.21045 570.5" stroke="#1E52A6" stroke-width="0.5" stroke-miterlimit="10"/>
<path d="M148.532 570.5C148.532 600.982 129.323 626.935 102.448 636.786C94.9583 639.526 86.8738 641.021 78.4588 641.021C39.7326 641.021 8.3418 609.452 8.3418 570.5" stroke="#1E52A6" stroke-width="0.5" stroke-miterlimit="10"/>
<path d="M164.084 570.5C164.084 600.982 144.875 626.935 118 636.786C110.511 639.526 102.426 641.021 94.0111 641.021C55.2848 641.021 23.894 609.452 23.894 570.5" stroke="#1E52A6" stroke-width="0.5" stroke-miterlimit="10"/>
<path d="M179.636 570.5C179.636 600.982 160.427 626.935 133.552 636.786C126.063 639.526 117.978 641.021 109.563 641.021C70.859 641.021 39.4683 609.452 39.4683 570.477" stroke="#1E52A6" stroke-width="0.5" stroke-miterlimit="10"/>
<path d="M195.167 570.5C195.167 600.982 175.958 626.935 149.083 636.786C141.593 639.526 133.508 641.021 125.094 641.021C86.3893 641.021 54.9985 609.452 54.9985 570.477" stroke="#1E52A6" stroke-width="0.5" stroke-miterlimit="10"/>
<path d="M210.719 570.5C210.719 600.982 191.51 626.935 164.635 636.786C157.145 639.526 149.061 641.021 140.646 641.021C101.942 641.021 70.5508 609.452 70.5508 570.477" stroke="#1E52A6" stroke-width="0.5" stroke-miterlimit="10"/>
<path d="M226.271 570.5C226.271 600.982 207.062 626.935 180.187 636.786C172.697 639.526 164.613 641.021 156.198 641.021C117.494 641.021 86.103 609.452 86.103 570.477" stroke="#1E52A6" stroke-width="0.5" stroke-miterlimit="10"/>
<path d="M241.823 570.5C241.823 600.982 222.614 626.935 195.739 636.786C188.25 639.526 180.165 641.021 171.75 641.021C133.046 641.021 101.655 609.452 101.655 570.477" stroke="#1E52A6" stroke-width="0.5" stroke-miterlimit="10"/>
<path d="M257.376 570.5C257.376 600.982 238.167 626.935 211.292 636.786C203.802 639.526 195.717 641.021 187.303 641.021C148.598 641.021 117.208 609.452 117.208 570.477" stroke="#1E52A6" stroke-width="0.5" stroke-miterlimit="10"/>
<path d="M272.928 570.5C272.928 600.982 253.719 626.935 226.844 636.786C219.354 639.526 211.27 641.021 202.855 641.021C164.151 641.021 132.76 609.452 132.76 570.477" stroke="#1E52A6" stroke-width="0.5" stroke-miterlimit="10"/>
<path d="M288.458 570.5C288.458 600.982 269.249 626.935 242.374 636.786C234.884 639.526 226.8 641.021 218.385 641.021C179.68 641.021 148.29 609.452 148.29 570.477" stroke="#1E52A6" stroke-width="0.5" stroke-miterlimit="10"/>
<path d="M304.01 570.5C304.01 600.982 284.801 626.935 257.926 636.786C250.436 639.526 242.352 641.021 233.937 641.021C195.233 641.021 163.842 609.452 163.842 570.477" stroke="#1E52A6" stroke-width="0.5" stroke-miterlimit="10"/>
<path d="M319.562 570.5C319.562 600.982 300.353 626.935 273.478 636.786C265.989 639.526 257.904 641.021 249.489 641.021C210.785 641.021 179.394 609.452 179.394 570.477" stroke="#1E52A6" stroke-width="0.5" stroke-miterlimit="10"/>
<path d="M335.114 570.5C335.114 600.982 315.905 626.935 289.03 636.786C281.541 639.526 273.456 641.021 265.041 641.021C226.337 641.021 194.946 609.452 194.946 570.477" stroke="#1E52A6" stroke-width="0.5" stroke-miterlimit="10"/>
<path d="M350.667 570.5C350.667 600.982 331.458 626.935 304.583 636.786C297.093 639.526 289.008 641.021 280.594 641.021C241.889 641.021 210.499 609.452 210.499 570.477" stroke="#1E52A6" stroke-width="0.5" stroke-miterlimit="10"/>
<path d="M366.197 570.5C366.197 600.982 346.988 626.935 320.113 636.786C312.623 639.526 304.539 641.021 296.124 641.021C257.42 641.021 226.029 609.452 226.029 570.477" stroke="#1E52A6" stroke-width="0.5" stroke-miterlimit="10"/>
<path d="M381.749 570.5C381.749 600.982 362.54 626.935 335.665 636.786C328.176 639.526 320.091 641.021 311.676 641.021C272.972 641.021 241.581 609.452 241.581 570.477" stroke="#1E52A6" stroke-width="0.5" stroke-miterlimit="10"/>
<path d="M397.301 570.5C397.301 600.982 378.092 626.935 351.217 636.786C343.728 639.526 335.643 641.021 327.228 641.021C288.524 641.021 257.133 609.452 257.133 570.477" stroke="#1E52A6" stroke-width="0.5" stroke-miterlimit="10"/>
<path d="M412.854 570.5C412.854 600.982 393.645 626.935 366.77 636.786C359.28 639.526 351.195 641.021 342.781 641.021C304.076 641.021 272.686 609.452 272.686 570.477" stroke="#1E52A6" stroke-width="0.5" stroke-miterlimit="10"/>
<path d="M428.405 570.5C428.405 600.982 409.196 626.935 382.322 636.786C374.832 639.526 366.747 641.021 358.332 641.021C319.628 641.021 288.237 609.452 288.237 570.477" stroke="#1E52A6" stroke-width="0.5" stroke-miterlimit="10"/>
<path d="M443.958 570.5C443.958 600.982 424.749 626.935 397.874 636.786C390.384 639.526 382.3 641.021 373.885 641.021C335.18 641.021 303.79 609.452 303.79 570.477" stroke="#1E52A6" stroke-width="0.5" stroke-miterlimit="10"/>
<path d="M459.488 570.5C459.488 600.982 440.279 626.935 413.404 636.786C405.914 639.526 397.83 641.021 389.415 641.021C350.711 641.021 319.32 609.452 319.32 570.477" stroke="#1E52A6" stroke-width="0.5" stroke-miterlimit="10"/>
<path d="M475.04 570.5C475.04 600.982 455.831 626.935 428.956 636.786C421.467 639.526 413.382 641.021 404.967 641.021C366.263 641.021 334.872 609.452 334.872 570.477" stroke="#1E52A6" stroke-width="0.5" stroke-miterlimit="10"/>
<path d="M490.592 570.5C490.592 600.982 471.383 626.935 444.509 636.786C437.019 639.526 428.934 641.021 420.519 641.021C381.815 641.021 350.424 609.452 350.424 570.477" stroke="#1E52A6" stroke-width="0.5" stroke-miterlimit="10"/>
<path d="M506.145 570.5C506.145 600.982 486.936 626.935 460.061 636.786C452.571 639.526 444.487 641.021 436.072 641.021C397.367 641.021 365.977 609.452 365.977 570.477" stroke="#1E52A6" stroke-width="0.5" stroke-miterlimit="10"/>
<path d="M521.697 570.5C521.697 600.982 502.488 626.935 475.613 636.786C468.123 639.526 460.039 641.021 451.624 641.021C412.92 641.021 381.529 609.452 381.529 570.477" stroke="#1E52A6" stroke-width="0.5" stroke-miterlimit="10"/>
<path d="M537.227 570.5C537.227 600.982 518.018 626.935 491.143 636.786C483.653 639.526 475.569 641.021 467.154 641.021C428.449 641.021 397.059 609.452 397.059 570.477" stroke="#1E52A6" stroke-width="0.5" stroke-miterlimit="10"/>
<path d="M552.779 570.5C552.779 600.982 533.57 626.935 506.695 636.786C499.205 639.526 491.121 641.021 482.706 641.021C444.002 641.021 412.611 609.452 412.611 570.477" stroke="#1E52A6" stroke-width="0.5" stroke-miterlimit="10"/>
<path d="M568.331 570.5C568.331 600.982 549.122 626.935 522.247 636.786C514.758 639.526 506.673 641.021 498.258 641.021C459.554 641.021 428.163 609.452 428.163 570.477" stroke="#1E52A6" stroke-width="0.5" stroke-miterlimit="10"/>
<path d="M583.883 570.5C583.883 600.982 564.674 626.935 537.8 636.786C530.31 639.526 522.225 641.021 513.81 641.021C475.106 641.021 443.715 609.452 443.715 570.477" stroke="#1E52A6" stroke-width="0.5" stroke-miterlimit="10"/>
<path d="M599.436 570.5C599.436 600.982 580.227 626.935 553.352 636.786C545.862 639.526 537.778 641.021 529.363 641.021C490.658 641.021 459.268 609.452 459.268 570.477" stroke="#1E52A6" stroke-width="0.5" stroke-miterlimit="10"/>
<path d="M614.988 570.5C614.988 600.982 595.779 626.935 568.904 636.786C561.414 639.526 553.33 641.021 544.915 641.021C506.211 641.021 474.82 609.452 474.82 570.477" stroke="#1E52A6" stroke-width="0.5" stroke-miterlimit="10"/>
<path d="M630.518 570.5C630.518 600.982 611.309 626.935 584.434 636.786C576.945 639.526 568.86 641.021 560.445 641.021C521.741 641.021 490.35 609.452 490.35 570.477" stroke="#1E52A6" stroke-width="0.5" stroke-miterlimit="10"/>
<path d="M646.07 570.5C646.07 600.982 626.861 626.935 599.987 636.786C592.497 639.526 584.412 641.021 575.997 641.021C537.293 641.021 505.902 609.452 505.902 570.477" stroke="#1E52A6" stroke-width="0.5" stroke-miterlimit="10"/>
<path d="M661.622 570.5C661.622 600.982 642.413 626.935 615.538 636.786C608.049 639.526 599.964 641.021 591.549 641.021C552.845 641.021 521.454 609.452 521.454 570.477" stroke="#1E52A6" stroke-width="0.5" stroke-miterlimit="10"/>
<path d="M677.174 570.5C677.174 600.982 657.965 626.935 631.091 636.786C623.601 639.526 615.516 641.021 607.101 641.021C568.397 641.021 537.006 609.452 537.006 570.477" stroke="#1E52A6" stroke-width="0.5" stroke-miterlimit="10"/>
<path d="M692.727 570.5C692.727 600.982 673.518 626.935 646.643 636.786C639.153 639.526 631.069 641.021 622.654 641.021C583.949 641.021 552.559 609.452 552.559 570.477" stroke="#1E52A6" stroke-width="0.5" stroke-miterlimit="10"/>
<path d="M708.257 570.5C708.257 600.982 689.048 626.935 662.173 636.786C654.683 639.526 646.599 641.021 638.184 641.021C599.48 641.021 568.089 609.452 568.089 570.477" stroke="#1E52A6" stroke-width="0.5" stroke-miterlimit="10"/>
<path d="M723.809 570.5C723.809 600.982 704.6 626.935 677.725 636.786C670.236 639.526 662.151 641.021 653.736 641.021C615.032 641.021 583.641 609.452 583.641 570.477" stroke="#1E52A6" stroke-width="0.5" stroke-miterlimit="10"/>
<path d="M739.361 570.5C739.361 600.982 720.152 626.935 693.278 636.786C685.788 639.526 677.703 641.021 669.288 641.021C630.584 641.021 599.193 609.452 599.193 570.477" stroke="#1E52A6" stroke-width="0.5" stroke-miterlimit="10"/>
<path d="M754.914 570.5C754.914 600.982 735.705 626.935 708.83 636.786C701.34 639.526 693.256 641.021 684.841 641.021C646.136 641.021 614.746 609.452 614.746 570.477" stroke="#1E52A6" stroke-width="0.5" stroke-miterlimit="10"/>
<path d="M770.466 570.5C770.466 600.982 751.257 626.935 724.382 636.786C716.892 639.526 708.808 641.021 700.393 641.021C661.689 641.021 630.298 609.452 630.298 570.477" stroke="#1E52A6" stroke-width="0.5" stroke-miterlimit="10"/>
<path d="M786.018 570.5C786.018 600.982 766.809 626.935 739.934 636.786C732.444 639.526 724.36 641.021 715.945 641.021C677.24 641.021 645.85 609.452 645.85 570.477" stroke="#1E52A6" stroke-width="0.5" stroke-miterlimit="10"/>
<path d="M801.548 570.5C801.548 600.982 782.339 626.935 755.464 636.786C747.974 639.526 739.89 641.021 731.475 641.021C692.771 641.021 661.38 609.452 661.38 570.477" stroke="#1E52A6" stroke-width="0.5" stroke-miterlimit="10"/>
<path d="M817.1 570.5C817.1 600.982 797.891 626.935 771.016 636.786C763.527 639.526 755.442 641.021 747.027 641.021C708.323 641.021 676.932 609.452 676.932 570.477" stroke="#1E52A6" stroke-width="0.5" stroke-miterlimit="10"/>
<path d="M832.652 570.5C832.652 600.982 813.443 626.935 786.569 636.786C779.079 639.526 770.994 641.021 762.579 641.021C723.875 641.021 692.484 609.452 692.484 570.477" stroke="#1E52A6" stroke-width="0.5" stroke-miterlimit="10"/>
<path d="M848.205 570.5C848.205 600.982 828.996 626.935 802.121 636.786C794.631 639.526 786.547 641.021 778.132 641.021C739.427 641.021 708.037 609.452 708.037 570.477" stroke="#1E52A6" stroke-width="0.5" stroke-miterlimit="10"/>
<path d="M863.757 570.5C863.757 600.982 844.548 626.935 817.673 636.786C810.183 639.526 802.099 641.021 793.684 641.021C754.98 641.021 723.589 609.452 723.589 570.477" stroke="#1E52A6" stroke-width="0.5" stroke-miterlimit="10"/>
<path d="M879.287 570.5C879.287 600.982 860.078 626.935 833.203 636.786C825.714 639.526 817.629 641.021 809.214 641.021C770.51 641.021 739.119 609.452 739.119 570.477" stroke="#1E52A6" stroke-width="0.5" stroke-miterlimit="10"/>
<path d="M894.839 570.5C894.839 600.982 875.631 626.935 848.756 636.786C841.266 639.526 833.181 641.021 824.766 641.021C786.062 641.021 754.671 609.452 754.671 570.477" stroke="#1E52A6" stroke-width="0.5" stroke-miterlimit="10"/>
<path d="M910.392 570.5C910.392 600.982 891.183 626.935 864.308 636.786C856.818 639.526 848.734 641.021 840.319 641.021C801.614 641.021 770.224 609.452 770.224 570.477" stroke="#1E52A6" stroke-width="0.5" stroke-miterlimit="10"/>
<path d="M925.943 570.5C925.943 600.982 906.734 626.935 879.86 636.786C872.37 639.526 864.285 641.021 855.87 641.021C817.166 641.021 785.775 609.452 785.775 570.477" stroke="#1E52A6" stroke-width="0.5" stroke-miterlimit="10"/>
<path d="M941.496 570.5C941.496 600.982 922.287 626.935 895.412 636.786C887.923 639.526 879.838 641.021 871.423 641.021C832.719 641.021 801.328 609.452 801.328 570.477" stroke="#1E52A6" stroke-width="0.5" stroke-miterlimit="10"/>
<path d="M957.048 570.5C957.048 600.982 937.839 626.935 910.964 636.786C903.474 639.526 895.39 641.021 886.975 641.021C848.271 641.021 816.88 609.452 816.88 570.477" stroke="#1E52A6" stroke-width="0.5" stroke-miterlimit="10"/>
<path d="M972.578 570.5C972.578 600.982 953.369 626.935 926.494 636.786C919.005 639.526 910.92 641.021 902.505 641.021C863.801 641.021 832.41 609.452 832.41 570.477" stroke="#1E52A6" stroke-width="0.5" stroke-miterlimit="10"/>
<path d="M988.13 570.5C988.13 600.982 968.921 626.935 942.047 636.786C934.557 639.526 926.472 641.021 918.057 641.021C879.353 641.021 847.962 609.452 847.962 570.477" stroke="#1E52A6" stroke-width="0.5" stroke-miterlimit="10"/>
<path d="M1003.68 570.5C1003.68 600.982 984.474 626.935 957.599 636.786C950.109 639.526 942.025 641.021 933.61 641.021C894.905 641.021 863.515 609.452 863.515 570.477" stroke="#1E52A6" stroke-width="0.5" stroke-miterlimit="10"/>
<path d="M1019.23 570.5C1019.23 600.982 1000.03 626.935 973.151 636.786C965.661 639.526 957.577 641.021 949.162 641.021C910.458 641.021 879.067 609.452 879.067 570.477" stroke="#1E52A6" stroke-width="0.5" stroke-miterlimit="10"/>
<path d="M1034.79 570.5C1034.79 600.982 1015.58 626.935 988.703 636.786C981.214 639.526 973.129 641.021 964.714 641.021C926.01 641.021 894.619 609.452 894.619 570.477" stroke="#1E52A6" stroke-width="0.5" stroke-miterlimit="10"/>
<path d="M1050.32 570.5C1050.32 600.982 1031.11 626.935 1004.23 636.786C996.744 639.526 988.659 641.021 980.244 641.021C941.54 641.021 910.149 609.452 910.149 570.477" stroke="#1E52A6" stroke-width="0.5" stroke-miterlimit="10"/>
<path d="M1065.87 570.5C1065.87 600.982 1046.66 626.935 1019.79 636.786C1012.3 639.526 1004.21 641.021 995.796 641.021C957.092 641.021 925.701 609.452 925.701 570.477" stroke="#1E52A6" stroke-width="0.5" stroke-miterlimit="10"/>
<path d="M1081.42 570.5C1081.42 600.982 1062.21 626.935 1035.34 636.786C1027.85 639.526 1019.76 641.021 1011.35 641.021C972.644 641.021 941.253 609.452 941.253 570.477" stroke="#1E52A6" stroke-width="0.5" stroke-miterlimit="10"/>
<path d="M1096.97 570.5C1096.97 600.982 1077.76 626.935 1050.89 636.786C1043.4 639.526 1035.32 641.021 1026.9 641.021C988.196 641.021 956.806 609.452 956.806 570.477" stroke="#1E52A6" stroke-width="0.5" stroke-miterlimit="10"/>
<path d="M1112.53 570.5C1112.53 600.982 1093.32 626.935 1066.44 636.786C1058.95 639.526 1050.87 641.021 1042.45 641.021C1003.75 641.021 972.358 609.452 972.358 570.477" stroke="#1E52A6" stroke-width="0.5" stroke-miterlimit="10"/>
<path d="M1128.08 570.5C1128.08 600.982 1108.87 626.935 1081.99 636.786C1074.5 639.526 1066.42 641.021 1058.01 641.021C1019.3 641.021 987.91 609.452 987.91 570.477" stroke="#1E52A6" stroke-width="0.5" stroke-miterlimit="10"/>
<path d="M1143.61 570.5C1143.61 600.982 1124.4 626.935 1097.52 636.786C1090.03 639.526 1081.95 641.021 1073.54 641.021C1034.83 641.021 1003.44 609.452 1003.44 570.477" stroke="#1E52A6" stroke-width="0.5" stroke-miterlimit="10"/>
<path d="M1159.16 570.5C1159.16 600.982 1139.95 626.935 1113.08 636.786C1105.59 639.526 1097.5 641.021 1089.09 641.021C1050.38 641.021 1018.99 609.452 1018.99 570.477" stroke="#1E52A6" stroke-width="0.5" stroke-miterlimit="10"/>
<path d="M1174.71 570.5C1174.71 600.982 1155.5 626.935 1128.63 636.786C1121.14 639.526 1113.05 641.021 1104.64 641.021C1065.94 641.021 1034.54 609.452 1034.54 570.477" stroke="#1E52A6" stroke-width="0.5" stroke-miterlimit="10"/>
<path d="M1190.26 570.5C1190.26 600.982 1171.06 626.935 1144.18 636.786C1136.69 639.526 1128.61 641.021 1120.19 641.021C1081.49 641.021 1050.1 609.452 1050.1 570.477" stroke="#1E52A6" stroke-width="0.5" stroke-miterlimit="10"/>
</g>
<mask id="mask4_0_1" style="mask-type:luminance" maskUnits="userSpaceOnUse" x="0" y="0" width="70" height="71">
<path d="M70 0.5H0V70.5H70V0.5Z" fill="white"/>
</mask>
<g mask="url(#mask4_0_1)">
<path d="M20.9821 49.164C36.2458 49.164 48.6195 36.7903 48.6195 21.5266C48.6195 6.26288 36.2458 -6.11081 20.9821 -6.11081C5.71841 -6.11081 -6.65527 6.26288 -6.65527 21.5266C-6.65527 36.7903 5.71841 49.164 20.9821 49.164Z" stroke="#1E52A6" stroke-width="0.5" stroke-miterlimit="10"/>
<path d="M39.8642 16.6182C32.2363 3.39646 15.3222 -1.11396 2.10045 6.51396C-11.1213 14.1419 -15.6538 31.056 -8.0259 44.2777C-0.397974 57.4994 16.5161 62.032 29.7378 54.404C42.9596 46.7761 47.4921 29.862 39.8642 16.6403V16.6182Z" stroke="#1E52A6" stroke-width="0.5" stroke-miterlimit="10"/>
<path d="M29.8262 16.7729C16.6045 9.14498 -0.309596 13.6775 -7.93752 26.8992C-15.5654 40.121 -11.0329 57.0351 2.18883 64.663C15.4106 72.2909 32.3246 67.7584 39.9526 54.5366C47.5805 41.3149 43.048 24.4008 29.8262 16.7729Z" stroke="#1E52A6" stroke-width="0.5" stroke-miterlimit="10"/>
<path d="M46.6947 60.2387C52.5801 46.1553 45.9344 29.9673 31.8509 24.0819C17.7675 18.1964 1.57958 24.8422 -4.30586 38.9256C-10.1913 53.009 -3.54554 69.197 10.5379 75.0824C24.6213 80.9679 40.8092 74.3221 46.6947 60.2387Z" stroke="#1E52A6" stroke-width="0.5" stroke-miterlimit="10"/>
<path d="M16.3172 30.68C3.09551 38.3301 -1.43702 55.222 6.1909 68.4438C13.8188 81.6655 30.7329 86.198 43.9546 78.5701C57.1764 70.9422 61.7089 54.0281 54.081 40.8064C46.4531 27.5846 29.539 23.0521 16.3172 30.68Z" stroke="#1E52A6" stroke-width="0.5" stroke-miterlimit="10"/>
<path d="M67.3538 60.6237C70.725 45.7369 61.3899 30.9359 46.5031 27.5646C31.6164 24.1933 16.8153 33.5285 13.4441 48.4153C10.0728 63.302 19.4079 78.1031 34.2947 81.4743C49.1815 84.8456 63.9825 75.5104 67.3538 60.6237Z" stroke="#1E52A6" stroke-width="0.5" stroke-miterlimit="10"/>
<path d="M49.2609 76.9782C64.5247 76.9782 76.8983 64.6045 76.8983 49.3408C76.8983 34.0771 64.5247 21.7034 49.2609 21.7034C33.9972 21.7034 21.6235 34.0771 21.6235 49.3408C21.6235 64.6045 33.9972 76.9782 49.2609 76.9782Z" stroke="#1E52A6" stroke-width="0.5" stroke-miterlimit="10"/>
<path d="M81.8388 43.0355C83.2911 27.841 72.151 14.3461 56.9565 12.8938C41.762 11.4414 28.2671 22.5816 26.8148 37.7761C25.3624 52.9705 36.5026 66.4654 51.6971 67.9178C66.8915 69.3701 80.3864 58.23 81.8388 43.0355Z" stroke="#1E52A6" stroke-width="0.5" stroke-miterlimit="10"/>
<path d="M40.4169 54.0724C53.6386 61.7003 70.5527 57.1678 78.1806 43.946C85.8085 30.7243 81.276 13.8102 68.0543 6.18229C54.8325 -1.44563 37.9184 3.08691 30.2905 16.3086C22.6626 29.5304 27.1951 46.4445 40.4169 54.0724Z" stroke="#1E52A6" stroke-width="0.5" stroke-miterlimit="10"/>
<path d="M53.4526 48.5774C68.5178 46.1239 78.7416 31.9221 76.2881 16.8569C73.8345 1.79164 59.6328 -8.43217 44.5676 -5.97864C29.5023 -3.52511 19.2785 10.6766 21.7321 25.7419C24.1856 40.8071 38.3873 51.0309 53.4526 48.5774Z" stroke="#1E52A6" stroke-width="0.5" stroke-miterlimit="10"/>
<path d="M67.5319 19.3942C69.2731 4.23012 58.3916 -9.47427 43.2275 -11.2154C28.0635 -12.9565 14.3591 -2.07509 12.6179 13.089C10.8768 28.2531 21.7583 41.9575 36.9223 43.6986C52.0864 45.4397 65.7908 34.5583 67.5319 19.3942Z" stroke="#1E52A6" stroke-width="0.5" stroke-miterlimit="10"/>
<path d="M53.7714 30.1273C61.3993 16.9056 56.8668 -0.00847856 43.6451 -7.6364C30.4233 -15.2643 13.5093 -10.7318 5.88133 2.48994C-1.74659 15.7117 2.78594 32.6258 16.0077 40.2537C29.2294 47.8816 46.1435 43.3491 53.7714 30.1273Z" stroke="#1E52A6" stroke-width="0.5" stroke-miterlimit="10"/>
</g>
<path d="M0.5 70V1H69.5V70H0.5Z" stroke="#B3C5E3" stroke-miterlimit="10"/>
<mask id="mask5_0_1" style="mask-type:luminance" maskUnits="userSpaceOnUse" x="0" y="570" width="70" height="71">
<path d="M70 570.5H0V640.5H70V570.5Z" fill="white"/>
</mask>
<g mask="url(#mask5_0_1)">
<path d="M20.9821 619.164C36.2458 619.164 48.6195 606.79 48.6195 591.527C48.6195 576.263 36.2458 563.889 20.9821 563.889C5.71841 563.889 -6.65527 576.263 -6.65527 591.527C-6.65527 606.79 5.71841 619.164 20.9821 619.164Z" stroke="#1E52A6" stroke-width="0.5" stroke-miterlimit="10"/>
<path d="M39.8642 586.618C32.2363 573.396 15.3222 568.886 2.10045 576.514C-11.1213 584.142 -15.6538 601.056 -8.0259 614.278C-0.397974 627.499 16.5161 632.032 29.7378 624.404C42.9596 616.776 47.4921 599.862 39.8642 586.64V586.618Z" stroke="#1E52A6" stroke-width="0.5" stroke-miterlimit="10"/>
<path d="M29.8262 586.773C16.6045 579.145 -0.309596 583.677 -7.93752 596.899C-15.5654 610.121 -11.0329 627.035 2.18883 634.663C15.4106 642.291 32.3246 637.758 39.9526 624.537C47.5805 611.315 43.048 594.401 29.8262 586.773Z" stroke="#1E52A6" stroke-width="0.5" stroke-miterlimit="10"/>
<path d="M46.6947 630.239C52.5801 616.155 45.9344 599.967 31.8509 594.082C17.7675 588.196 1.57958 594.842 -4.30586 608.926C-10.1913 623.009 -3.54554 639.197 10.5379 645.082C24.6213 650.968 40.8092 644.322 46.6947 630.239Z" stroke="#1E52A6" stroke-width="0.5" stroke-miterlimit="10"/>
<path d="M16.3172 600.68C3.09551 608.33 -1.43702 625.222 6.1909 638.444C13.8188 651.666 30.7329 656.198 43.9546 648.57C57.1764 640.942 61.7089 624.028 54.081 610.806C46.4531 597.585 29.539 593.052 16.3172 600.68Z" stroke="#1E52A6" stroke-width="0.5" stroke-miterlimit="10"/>
<path d="M67.3538 630.624C70.725 615.737 61.3899 600.936 46.5031 597.565C31.6164 594.193 16.8153 603.528 13.4441 618.415C10.0728 633.302 19.4079 648.103 34.2947 651.474C49.1815 654.846 63.9825 645.51 67.3538 630.624Z" stroke="#1E52A6" stroke-width="0.5" stroke-miterlimit="10"/>
<path d="M49.2609 646.978C64.5247 646.978 76.8983 634.605 76.8983 619.341C76.8983 604.077 64.5247 591.703 49.2609 591.703C33.9972 591.703 21.6235 604.077 21.6235 619.341C21.6235 634.605 33.9972 646.978 49.2609 646.978Z" stroke="#1E52A6" stroke-width="0.5" stroke-miterlimit="10"/>
<path d="M81.8388 613.035C83.2911 597.841 72.151 584.346 56.9565 582.894C41.762 581.441 28.2671 592.582 26.8148 607.776C25.3624 622.97 36.5026 636.465 51.6971 637.918C66.8915 639.37 80.3864 628.23 81.8388 613.035Z" stroke="#1E52A6" stroke-width="0.5" stroke-miterlimit="10"/>
<path d="M40.4169 624.072C53.6386 631.7 70.5527 627.168 78.1806 613.946C85.8085 600.724 81.276 583.81 68.0543 576.182C54.8325 568.554 37.9184 573.087 30.2905 586.309C22.6626 599.53 27.1951 616.444 40.4169 624.072Z" stroke="#1E52A6" stroke-width="0.5" stroke-miterlimit="10"/>
<path d="M53.4526 618.577C68.5178 616.124 78.7416 601.922 76.2881 586.857C73.8345 571.792 59.6328 561.568 44.5676 564.021C29.5023 566.475 19.2785 580.677 21.7321 595.742C24.1856 610.807 38.3873 621.031 53.4526 618.577Z" stroke="#1E52A6" stroke-width="0.5" stroke-miterlimit="10"/>
<path d="M67.5319 589.394C69.2731 574.23 58.3916 560.526 43.2275 558.785C28.0635 557.043 14.3591 567.925 12.6179 583.089C10.8768 598.253 21.7583 611.957 36.9223 613.699C52.0864 615.44 65.7908 604.558 67.5319 589.394Z" stroke="#1E52A6" stroke-width="0.5" stroke-miterlimit="10"/>
<path d="M53.7714 600.127C61.3993 586.906 56.8668 569.991 43.6451 562.364C30.4233 554.736 13.5093 559.268 5.88133 572.49C-1.74659 585.712 2.78594 602.626 16.0077 610.254C29.2294 617.882 46.1435 613.349 53.7714 600.127Z" stroke="#1E52A6" stroke-width="0.5" stroke-miterlimit="10"/>
</g>
<path d="M0.5 640V571H69.5V640H0.5Z" stroke="#B3C5E3" stroke-miterlimit="10"/>
<mask id="mask6_0_1" style="mask-type:luminance" maskUnits="userSpaceOnUse" x="1051" y="0" width="70" height="71">
<path d="M1121 0.5H1051V70.5H1121V0.5Z" fill="white"/>
</mask>
<g mask="url(#mask6_0_1)">
<path d="M1071.98 49.164C1087.25 49.164 1099.62 36.7903 1099.62 21.5266C1099.62 6.26288 1087.25 -6.11081 1071.98 -6.11081C1056.72 -6.11081 1044.34 6.26288 1044.34 21.5266C1044.34 36.7903 1056.72 49.164 1071.98 49.164Z" stroke="#1E52A6" stroke-width="0.5" stroke-miterlimit="10"/>
<path d="M1090.86 16.6182C1083.24 3.39646 1066.32 -1.11396 1053.1 6.51396C1039.88 14.1419 1035.35 31.056 1042.97 44.2777C1050.6 57.4994 1067.52 62.032 1080.74 54.404C1093.96 46.7761 1098.49 29.862 1090.86 16.6403V16.6182Z" stroke="#1E52A6" stroke-width="0.5" stroke-miterlimit="10"/>
<path d="M1080.83 16.7729C1067.6 9.14498 1050.69 13.6775 1043.06 26.8992C1035.43 40.121 1039.97 57.0351 1053.19 64.663C1066.41 72.2909 1083.32 67.7584 1090.95 54.5366C1098.58 41.3149 1094.05 24.4008 1080.83 16.7729Z" stroke="#1E52A6" stroke-width="0.5" stroke-miterlimit="10"/>
<path d="M1097.69 60.2387C1103.58 46.1553 1096.93 29.9673 1082.85 24.0819C1068.77 18.1964 1052.58 24.8422 1046.69 38.9256C1040.81 53.009 1047.45 69.197 1061.54 75.0824C1075.62 80.9679 1091.81 74.3221 1097.69 60.2387Z" stroke="#1E52A6" stroke-width="0.5" stroke-miterlimit="10"/>
<path d="M1067.32 30.68C1054.1 38.3301 1049.56 55.222 1057.19 68.4438C1064.82 81.6655 1081.73 86.198 1094.95 78.5701C1108.18 70.9422 1112.71 54.0281 1105.08 40.8064C1097.45 27.5846 1080.54 23.0521 1067.32 30.68Z" stroke="#1E52A6" stroke-width="0.5" stroke-miterlimit="10"/>
<path d="M1118.35 60.6237C1121.73 45.7369 1112.39 30.9359 1097.5 27.5646C1082.62 24.1933 1067.82 33.5285 1064.44 48.4153C1061.07 63.302 1070.41 78.1031 1085.29 81.4743C1100.18 84.8456 1114.98 75.5104 1118.35 60.6237Z" stroke="#1E52A6" stroke-width="0.5" stroke-miterlimit="10"/>
<path d="M1100.26 76.9782C1115.52 76.9782 1127.9 64.6045 1127.9 49.3408C1127.9 34.0771 1115.52 21.7034 1100.26 21.7034C1085 21.7034 1072.62 34.0771 1072.62 49.3408C1072.62 64.6045 1085 76.9782 1100.26 76.9782Z" stroke="#1E52A6" stroke-width="0.5" stroke-miterlimit="10"/>
<path d="M1132.84 43.0355C1134.29 27.841 1123.15 14.3461 1107.96 12.8938C1092.76 11.4414 1079.27 22.5816 1077.81 37.7761C1076.36 52.9705 1087.5 66.4654 1102.7 67.9178C1117.89 69.3701 1131.39 58.23 1132.84 43.0355Z" stroke="#1E52A6" stroke-width="0.5" stroke-miterlimit="10"/>
<path d="M1091.42 54.0724C1104.64 61.7003 1121.55 57.1678 1129.18 43.946C1136.81 30.7243 1132.28 13.8102 1119.05 6.18229C1105.83 -1.44563 1088.92 3.08691 1081.29 16.3086C1073.66 29.5304 1078.2 46.4445 1091.42 54.0724Z" stroke="#1E52A6" stroke-width="0.5" stroke-miterlimit="10"/>
<path d="M1104.45 48.5774C1119.52 46.1239 1129.74 31.9221 1127.29 16.8569C1124.83 1.79164 1110.63 -8.43217 1095.57 -5.97864C1080.5 -3.52511 1070.28 10.6766 1072.73 25.7419C1075.19 40.8071 1089.39 51.0309 1104.45 48.5774Z" stroke="#1E52A6" stroke-width="0.5" stroke-miterlimit="10"/>
<path d="M1118.53 19.3942C1120.27 4.23012 1109.39 -9.47427 1094.23 -11.2154C1079.06 -12.9565 1065.36 -2.07509 1063.62 13.089C1061.88 28.2531 1072.76 41.9575 1087.92 43.6986C1103.09 45.4397 1116.79 34.5583 1118.53 19.3942Z" stroke="#1E52A6" stroke-width="0.5" stroke-miterlimit="10"/>
<path d="M1104.77 30.1273C1112.4 16.9056 1107.87 -0.00847856 1094.65 -7.6364C1081.42 -15.2643 1064.51 -10.7318 1056.88 2.48994C1049.25 15.7117 1053.79 32.6258 1067.01 40.2537C1080.23 47.8816 1097.14 43.3491 1104.77 30.1273Z" stroke="#1E52A6" stroke-width="0.5" stroke-miterlimit="10"/>
</g>
<path d="M1051.5 70V1H1120.5V70H1051.5Z" stroke="#B3C5E3" stroke-miterlimit="10"/>
<mask id="mask7_0_1" style="mask-type:luminance" maskUnits="userSpaceOnUse" x="1051" y="570" width="70" height="71">
<path d="M1121 570.5H1051V640.5H1121V570.5Z" fill="white"/>
</mask>
<g mask="url(#mask7_0_1)">
<path d="M1071.98 619.164C1087.25 619.164 1099.62 606.79 1099.62 591.527C1099.62 576.263 1087.25 563.889 1071.98 563.889C1056.72 563.889 1044.34 576.263 1044.34 591.527C1044.34 606.79 1056.72 619.164 1071.98 619.164Z" stroke="#1E52A6" stroke-width="0.5" stroke-miterlimit="10"/>
<path d="M1090.86 586.618C1083.24 573.396 1066.32 568.886 1053.1 576.514C1039.88 584.142 1035.35 601.056 1042.97 614.278C1050.6 627.499 1067.52 632.032 1080.74 624.404C1093.96 616.776 1098.49 599.862 1090.86 586.64V586.618Z" stroke="#1E52A6" stroke-width="0.5" stroke-miterlimit="10"/>
<path d="M1080.83 586.773C1067.6 579.145 1050.69 583.677 1043.06 596.899C1035.43 610.121 1039.97 627.035 1053.19 634.663C1066.41 642.291 1083.32 637.758 1090.95 624.537C1098.58 611.315 1094.05 594.401 1080.83 586.773Z" stroke="#1E52A6" stroke-width="0.5" stroke-miterlimit="10"/>
<path d="M1097.69 630.239C1103.58 616.155 1096.93 599.967 1082.85 594.082C1068.77 588.196 1052.58 594.842 1046.69 608.926C1040.81 623.009 1047.45 639.197 1061.54 645.082C1075.62 650.968 1091.81 644.322 1097.69 630.239Z" stroke="#1E52A6" stroke-width="0.5" stroke-miterlimit="10"/>
<path d="M1067.32 600.68C1054.1 608.33 1049.56 625.222 1057.19 638.444C1064.82 651.666 1081.73 656.198 1094.95 648.57C1108.18 640.942 1112.71 624.028 1105.08 610.806C1097.45 597.585 1080.54 593.052 1067.32 600.68Z" stroke="#1E52A6" stroke-width="0.5" stroke-miterlimit="10"/>
<path d="M1118.35 630.624C1121.73 615.737 1112.39 600.936 1097.5 597.565C1082.62 594.193 1067.82 603.528 1064.44 618.415C1061.07 633.302 1070.41 648.103 1085.29 651.474C1100.18 654.846 1114.98 645.51 1118.35 630.624Z" stroke="#1E52A6" stroke-width="0.5" stroke-miterlimit="10"/>
<path d="M1100.26 646.978C1115.52 646.978 1127.9 634.605 1127.9 619.341C1127.9 604.077 1115.52 591.703 1100.26 591.703C1085 591.703 1072.62 604.077 1072.62 619.341C1072.62 634.605 1085 646.978 1100.26 646.978Z" stroke="#1E52A6" stroke-width="0.5" stroke-miterlimit="10"/>
<path d="M1132.84 613.035C1134.29 597.841 1123.15 584.346 1107.96 582.894C1092.76 581.441 1079.27 592.582 1077.81 607.776C1076.36 622.97 1087.5 636.465 1102.7 637.918C1117.89 639.37 1131.39 628.23 1132.84 613.035Z" stroke="#1E52A6" stroke-width="0.5" stroke-miterlimit="10"/>
<path d="M1091.42 624.072C1104.64 631.7 1121.55 627.168 1129.18 613.946C1136.81 600.724 1132.28 583.81 1119.05 576.182C1105.83 568.554 1088.92 573.087 1081.29 586.309C1073.66 599.53 1078.2 616.444 1091.42 624.072Z" stroke="#1E52A6" stroke-width="0.5" stroke-miterlimit="10"/>
<path d="M1104.45 618.577C1119.52 616.124 1129.74 601.922 1127.29 586.857C1124.83 571.792 1110.63 561.568 1095.57 564.021C1080.5 566.475 1070.28 580.677 1072.73 595.742C1075.19 610.807 1089.39 621.031 1104.45 618.577Z" stroke="#1E52A6" stroke-width="0.5" stroke-miterlimit="10"/>
<path d="M1118.53 589.394C1120.27 574.23 1109.39 560.526 1094.23 558.785C1079.06 557.043 1065.36 567.925 1063.62 583.089C1061.88 598.253 1072.76 611.957 1087.92 613.699C1103.09 615.44 1116.79 604.558 1118.53 589.394Z" stroke="#1E52A6" stroke-width="0.5" stroke-miterlimit="10"/>
<path d="M1104.77 600.127C1112.4 586.906 1107.87 569.991 1094.65 562.364C1081.42 554.736 1064.51 559.268 1056.88 572.49C1049.25 585.712 1053.79 602.626 1067.01 610.254C1080.23 617.882 1097.14 613.349 1104.77 600.127Z" stroke="#1E52A6" stroke-width="0.5" stroke-miterlimit="10"/>
</g>
<path d="M1051.5 640V571H1120.5V640H1051.5Z" stroke="#B3C5E3" stroke-miterlimit="10"/>
<path d="M1051 571H1051.5V570.5V70.5V70H1051L69.9999 70H69.4999V70.5V570.5V571H69.9999H1051Z" stroke="#B3C5E3" stroke-miterlimit="10"/>
<path d="M1043 566.5V78.5L78 78.5V566.5H1043Z" stroke="#B3C5E3" stroke-width="0.5" stroke-miterlimit="10"/>
</svg>
