<svg width="47" height="21" viewBox="0 0 47 21" fill="none" xmlns="http://www.w3.org/2000/svg">
<g clip-path="url(#clip0_138_504)">
<path d="M34.9496 5.5978C35.795 4.09622 37.7256 3.33912 39.4165 3.73029C41.1073 4.10884 42.4701 5.52209 42.9748 7.17508C43.4795 8.82808 43.1641 10.683 42.306 12.1845C41.8518 12.9669 41.2335 13.6861 40.4764 14.1782C39.3786 14.8849 38.0411 15.276 36.754 15.4022C35.1262 15.5663 33.4859 15.4401 31.8833 15.1498C29.6499 14.7334 27.6057 13.6861 25.5868 12.6514C23.1641 11.4148 20.754 10.1656 18.3313 8.92903C16.9559 8.2224 15.5553 7.50316 14.0284 7.16247C12.5142 6.82177 10.7603 6.88486 9.39753 7.61672C7.88333 8.43691 7.32813 10.1656 7.7193 11.6672C8.05999 12.9543 9.27135 13.9133 10.5836 14.1656C11.366 14.317 12.2366 14.2287 12.8423 13.6987C13.4354 13.1688 13.5994 12.1341 13.0316 11.5789" stroke="#1E52A6" stroke-miterlimit="10"/>
<path d="M13.5995 19.8439C0.577419 22.5694 -1.59293 8.51262 3.65628 3.62934C8.59004 -0.976338 15.2777 1.45899 15.2777 1.45899C16.7919 1.79969 18.1926 2.50631 19.5806 3.22556C22.0033 4.46215 24.7415 6.19085 27.1642 7.42745C27.1642 7.42745 37.4102 13.8628 46.8613 8.86593" stroke="#1E52A6" stroke-miterlimit="10"/>
</g>
<defs>
<clipPath id="clip0_138_504">
<rect width="46.3091" height="20" fill="white" transform="translate(0.690918 0.5)"/>
</clipPath>
</defs>
</svg>
