<svg width="72" height="28" viewBox="0 0 72 28" fill="none" xmlns="http://www.w3.org/2000/svg">
<path d="M15.5885 27.114C15.5885 27.1473 15.5885 27.22 15.5885 27.22C15.5885 27.3403 15.4937 27.4344 15.3671 27.4407C15.3671 27.4407 15.2959 27.4423 15.2642 27.4423C15.2642 27.4423 1.22257 27.4423 1.18301 27.4423C1.15928 27.4423 1.08017 27.4407 1.08017 27.4407C0.961506 27.4344 0.866561 27.3403 0.866561 27.22C0.866561 27.22 0.858643 27.1473 0.858643 27.114V25.8989C0.858643 25.5343 1.11185 25.2605 1.5153 25.2099C1.83173 25.1711 2.33799 25.1079 2.67024 25.0604C3.74611 24.8792 4.35525 24.4679 4.466 23.2678C4.48183 23.0748 4.5056 22.4878 4.5056 22.4878L4.52134 21.4578V6.8276L4.5056 5.79525C4.5056 5.79525 4.48183 5.20988 4.466 5.01764C4.35525 3.81758 3.74611 3.407 2.67024 3.22584C2.33799 3.17758 1.83173 3.11428 1.5153 3.07394C1.11185 3.02252 0.858643 2.74958 0.858643 2.38648C0.858643 2.38648 0.858643 1.20463 0.858643 1.17219C0.858643 1.13897 0.866561 1.06302 0.866561 1.06302C0.866561 0.944363 0.961506 0.848661 1.08017 0.843914C1.08017 0.843914 1.15928 0.842321 1.18301 0.842321C1.22257 0.842321 15.2642 0.842321 15.2642 0.842321C15.2959 0.842321 15.3671 0.843914 15.3671 0.843914C15.4937 0.848661 15.5885 0.944363 15.5885 1.06302C15.5885 1.06302 15.5885 1.13897 15.5885 1.17219V2.38648C15.5885 2.74958 15.3433 3.02252 14.932 3.07394C14.6234 3.11428 14.1172 3.17758 13.7849 3.22584C12.7091 3.407 12.0999 3.81758 11.9812 5.01764C11.9654 5.20988 11.9417 5.79525 11.9417 5.79525L11.9337 6.8276V21.4578L11.9417 22.4878C11.9417 22.4878 11.9654 23.0748 11.9812 23.2678C12.0999 24.4679 12.7091 24.8792 13.7849 25.0604C14.1172 25.1079 14.6234 25.1711 14.932 25.2099C15.3433 25.2605 15.5885 25.5343 15.5885 25.8989V27.114Z" fill="#1E52A6"/>
<path d="M38.0077 27.114C38.0077 27.1473 38.0077 27.22 38.0077 27.22C38.0077 27.3403 38.1027 27.4344 38.2213 27.4407C38.2213 27.4407 38.3004 27.4423 38.332 27.4423C38.3637 27.4423 52.4053 27.4423 52.4053 27.4423C52.437 27.4423 52.5082 27.4407 52.5082 27.4407C52.6347 27.4344 52.7218 27.3403 52.7297 27.22C52.7297 27.22 52.7376 27.1473 52.7376 27.114V25.8989C52.7376 25.5343 52.4765 25.2605 52.073 25.2099C51.7645 25.1711 51.2583 25.1079 50.926 25.0604C49.8501 24.8792 49.241 24.4679 49.1302 23.2678C49.1065 23.0748 49.0908 22.4878 49.0908 22.4878L49.0749 21.4578V6.8276L49.0908 5.79525C49.0908 5.79525 49.1065 5.20988 49.1302 5.01764C49.241 3.81758 49.8501 3.407 50.926 3.22584C51.2583 3.17758 51.7645 3.11428 52.073 3.07394C52.4765 3.02252 52.7376 2.74958 52.7376 2.38648V1.17219C52.7376 1.13897 52.7297 1.06302 52.7297 1.06302C52.7218 0.944363 52.6347 0.848661 52.5082 0.843914C52.5082 0.843914 52.437 0.842321 52.4053 0.842321C52.4053 0.842321 38.3637 0.842321 38.332 0.842321C38.3004 0.842321 38.2213 0.843914 38.2213 0.843914C38.1027 0.848661 38.0077 0.944363 38.0077 1.06302C38.0077 1.06302 38.0077 1.13897 38.0077 1.17219C38.0077 1.20463 38.0077 2.38648 38.0077 2.38648C38.0077 2.74958 38.2529 3.02252 38.6643 3.07394C38.9728 3.11428 39.4791 3.17758 39.8113 3.22584C40.8872 3.407 41.4963 3.81758 41.6071 5.01764C41.6308 5.20988 41.6467 5.79525 41.6467 5.79525L41.6625 6.8276V11.8858H30.6823V6.8276L30.6982 5.79525C30.6982 5.79525 30.7219 5.20988 30.7377 5.01764C30.8563 3.81758 31.4576 3.407 32.5334 3.22584C32.8736 3.17758 33.3799 3.11428 33.6884 3.07394C34.0918 3.02252 34.345 2.74958 34.345 2.38648V1.17219C34.345 1.13897 34.345 1.06302 34.345 1.06302C34.3371 0.944363 34.2422 0.848661 34.1235 0.843914C34.1235 0.843914 34.0523 0.842321 34.0207 0.842321C34.0207 0.842321 19.979 0.842321 19.9394 0.842321C19.9078 0.842321 19.8366 0.843914 19.8366 0.843914C19.7179 0.848661 19.6231 0.944363 19.6152 1.06302C19.6152 1.06302 19.6152 1.13897 19.6152 1.17219C19.6152 1.20463 19.6152 2.38648 19.6152 2.38648C19.6152 2.74958 19.8683 3.02252 20.2717 3.07394C20.5803 3.11428 21.0944 3.17758 21.4188 3.22584C22.5025 3.407 23.1038 3.81758 23.2224 5.01764C23.2383 5.20988 23.262 5.79525 23.262 5.79525L23.27 6.8276V21.4578L23.262 22.4878C23.262 22.4878 23.2383 23.0748 23.2224 23.2678C23.1038 24.4679 22.5025 24.8792 21.4188 25.0604C21.0944 25.1079 20.5803 25.1711 20.2717 25.2099C19.8683 25.2605 19.6152 25.5343 19.6152 25.8989C19.6152 25.8989 19.6152 27.0816 19.6152 27.114C19.6152 27.1473 19.6152 27.22 19.6152 27.22C19.6231 27.3403 19.7179 27.4344 19.8366 27.4407C19.8366 27.4407 19.9078 27.4423 19.9394 27.4423C19.979 27.4423 34.0128 27.4423 34.0128 27.4423C34.0523 27.4423 34.1235 27.4407 34.1235 27.4407C34.2422 27.4344 34.3371 27.3403 34.345 27.22C34.345 27.22 34.345 27.1473 34.345 27.114V25.8989C34.345 25.5343 34.0918 25.2605 33.6884 25.2099C33.3799 25.1711 32.8736 25.1079 32.5334 25.0604C31.4576 24.8792 30.8563 24.4679 30.7377 23.2678C30.7219 23.0748 30.6982 22.4878 30.6982 22.4878L30.6823 21.4578V15.8546H41.6625V21.4578L41.6467 22.4878C41.6467 22.4878 41.6308 23.0748 41.6071 23.2678C41.4963 24.4679 40.8872 24.8792 39.8113 25.0604C39.4791 25.1079 38.9728 25.1711 38.6643 25.2099C38.2529 25.2605 38.0077 25.5343 38.0077 25.8989C38.0077 25.8989 38.0077 27.0816 38.0077 27.114Z" fill="#1E52A6"/>
<path d="M56.7562 27.114C56.7562 27.1473 56.7562 27.22 56.7562 27.22C56.7641 27.3403 56.859 27.4344 56.9777 27.4407C56.9777 27.4407 57.0568 27.4423 57.0885 27.4423C57.1122 27.4423 71.1617 27.4423 71.1617 27.4423C71.1854 27.4423 71.2645 27.4407 71.2645 27.4407C71.3832 27.4344 71.4781 27.3403 71.486 27.22C71.486 27.22 71.486 27.1473 71.486 27.114V25.8989C71.486 25.5343 71.2329 25.2605 70.8295 25.2099C70.521 25.1711 70.0146 25.1079 69.6824 25.0604C68.5986 24.8792 67.9895 24.4679 67.8788 23.2678C67.8629 23.0748 67.8392 22.4878 67.8392 22.4878L67.8313 21.4578V6.8276L67.8392 5.79525C67.8392 5.79525 67.8629 5.20988 67.8788 5.01764C67.9895 3.81758 68.5986 3.407 69.6824 3.22584C70.0146 3.17758 70.521 3.11428 70.8295 3.07394C71.2329 3.02252 71.486 2.74958 71.486 2.38648V1.17219C71.486 1.13897 71.486 1.06302 71.486 1.06302C71.4781 0.944363 71.3832 0.848661 71.2645 0.843914C71.2645 0.843914 71.1854 0.842321 71.1617 0.842321C71.1617 0.842321 57.1122 0.842321 57.0885 0.842321C57.0568 0.842321 56.9777 0.843914 56.9777 0.843914C56.859 0.848661 56.7641 0.944363 56.7562 1.06302C56.7562 1.06302 56.7562 1.13897 56.7562 1.17219C56.7562 1.20463 56.7562 2.38648 56.7562 2.38648C56.7562 2.74958 57.0093 3.02252 57.4127 3.07394C57.7212 3.11428 58.2355 3.17758 58.5678 3.22584C59.6436 3.407 60.2528 3.81758 60.3635 5.01764C60.3873 5.20988 60.403 5.79525 60.403 5.79525L60.4109 6.8276V21.4578L60.403 22.4878C60.403 22.4878 60.3873 23.0748 60.3635 23.2678C60.2528 24.4679 59.6436 24.8792 58.5678 25.0604C58.2355 25.1079 57.7212 25.1711 57.4127 25.2099C57.0093 25.2605 56.7562 25.5343 56.7562 25.8989C56.7562 25.8989 56.7562 27.0816 56.7562 27.114Z" fill="#1E52A6"/>
</svg>
