<svg width="9" height="14" viewBox="0 0 9 14" fill="none" xmlns="http://www.w3.org/2000/svg">
<path d="M7.94219 12.8078C8.00026 12.8659 8.04632 12.9348 8.07775 13.0107C8.10917 13.0866 8.12535 13.1679 8.12535 13.25C8.12535 13.3321 8.10917 13.4135 8.07775 13.4893C8.04632 13.5652 8.00026 13.6341 7.94219 13.6922C7.88412 13.7503 7.81518 13.7963 7.73931 13.8278C7.66344 13.8592 7.58212 13.8754 7.5 13.8754C7.41788 13.8754 7.33656 13.8592 7.26069 13.8278C7.18482 13.7963 7.11588 13.7503 7.05781 13.6922L0.807812 7.4422C0.749702 7.38415 0.703603 7.31522 0.67215 7.23935C0.640698 7.16348 0.624508 7.08215 0.624508 7.00001C0.624508 6.91788 0.640698 6.83655 0.67215 6.76067C0.703603 6.6848 0.749702 6.61587 0.807812 6.55782L7.05781 0.307824C7.17509 0.190549 7.33415 0.124664 7.5 0.124664C7.66585 0.124664 7.82491 0.190549 7.94219 0.307824C8.05946 0.4251 8.12535 0.584159 8.12535 0.750012C8.12535 0.915864 8.05946 1.07492 7.94219 1.1922L2.13359 7.00001L7.94219 12.8078Z" fill="#1E52A6"/>
</svg>
