<svg width="10" height="6" viewBox="0 0 10 6" fill="none" xmlns="http://www.w3.org/2000/svg">
<path d="M9.14795 1.89797L5.39795 5.64797C5.34569 5.70041 5.28359 5.74202 5.21522 5.77041C5.14685 5.7988 5.07354 5.81342 4.99951 5.81342C4.92548 5.81342 4.85217 5.7988 4.7838 5.77041C4.71543 5.74202 4.65333 5.70041 4.60107 5.64797L0.851073 1.89797C0.745401 1.7923 0.686035 1.64898 0.686035 1.49954C0.686035 1.35009 0.745401 1.20677 0.851073 1.1011C0.956746 0.995427 1.10007 0.936062 1.24951 0.936062C1.39895 0.936061 1.54228 0.995427 1.64795 1.1011L4.99998 4.45313L8.35201 1.10063C8.45768 0.994959 8.601 0.935593 8.75045 0.935593C8.89989 0.935593 9.04321 0.994959 9.14889 1.10063C9.25456 1.2063 9.31392 1.34963 9.31392 1.49907C9.31392 1.64851 9.25456 1.79183 9.14889 1.89751L9.14795 1.89797Z" fill="#333333"/>
</svg>
