<svg width="18" height="16" viewBox="0 0 18 16" fill="none" xmlns="http://www.w3.org/2000/svg">
<path d="M7.34467 6.125C7.34467 5.95924 7.41051 5.80027 7.52772 5.68306C7.64493 5.56585 7.80391 5.5 7.96967 5.5H12.9697C13.1354 5.5 13.2944 5.56585 13.4116 5.68306C13.5288 5.80027 13.5947 5.95924 13.5947 6.125C13.5947 6.29076 13.5288 6.44973 13.4116 6.56694C13.2944 6.68415 13.1354 6.75 12.9697 6.75H7.96967C7.80391 6.75 7.64493 6.68415 7.52772 6.56694C7.41051 6.44973 7.34467 6.29076 7.34467 6.125ZM7.96967 9.25H12.9697C13.1354 9.25 13.2944 9.18415 13.4116 9.06694C13.5288 8.94973 13.5947 8.79076 13.5947 8.625C13.5947 8.45924 13.5288 8.30027 13.4116 8.18306C13.2944 8.06585 13.1354 8 12.9697 8H7.96967C7.80391 8 7.64493 8.06585 7.52772 8.18306C7.41051 8.30027 7.34467 8.45924 7.34467 8.625C7.34467 8.79076 7.41051 8.94973 7.52772 9.06694C7.64493 9.18415 7.80391 9.25 7.96967 9.25ZM17.9697 13C17.9697 13.663 17.7063 14.2989 17.2374 14.7678C16.7686 15.2366 16.1327 15.5 15.4697 15.5H6.71967C6.05662 15.5 5.42074 15.2366 4.9519 14.7678C4.48306 14.2989 4.21967 13.663 4.21967 13V3C4.21967 2.66848 4.08797 2.35054 3.85355 2.11612C3.61913 1.8817 3.30119 1.75 2.96967 1.75C2.63814 1.75 2.3202 1.8817 2.08578 2.11612C1.85136 2.35054 1.71967 2.66848 1.71967 3C1.71967 3.44844 2.09701 3.75156 2.10092 3.75469C2.20435 3.83429 2.28028 3.94428 2.31803 4.06922C2.35578 4.19416 2.35347 4.32779 2.31142 4.45135C2.26937 4.57491 2.1897 4.68221 2.08357 4.75819C1.97744 4.83417 1.85019 4.87502 1.71967 4.875C1.58451 4.87523 1.45302 4.83104 1.34545 4.74922C1.25482 4.68281 0.469666 4.06328 0.469666 3C0.469666 2.33696 0.733058 1.70107 1.2019 1.23223C1.67074 0.763392 2.30662 0.5 2.96967 0.5H13.5947C14.2577 0.5 14.8936 0.763392 15.3624 1.23223C15.8313 1.70107 16.0947 2.33696 16.0947 3V11.125H16.7197C16.8549 11.125 16.9865 11.1689 17.0947 11.25C17.1884 11.3172 17.9697 11.9367 17.9697 13ZM7.36498 11.5531C7.40768 11.4271 7.48918 11.3178 7.5978 11.2409C7.70642 11.164 7.83659 11.1234 7.96967 11.125H14.8447V3C14.8447 2.66848 14.713 2.35054 14.4785 2.11612C14.2441 1.8817 13.9262 1.75 13.5947 1.75H5.13295C5.35399 2.12946 5.4702 2.56085 5.46967 3V13C5.46967 13.3315 5.60136 13.6495 5.83578 13.8839C6.0702 14.1183 6.38814 14.25 6.71967 14.25C7.05119 14.25 7.36913 14.1183 7.60355 13.8839C7.83797 13.6495 7.96967 13.3315 7.96967 13C7.96967 12.5516 7.59232 12.2484 7.58842 12.2453C7.4819 12.1691 7.40269 12.0607 7.36246 11.9361C7.32223 11.8115 7.32312 11.6772 7.36498 11.5531ZM16.7197 13C16.7119 12.7684 16.6225 12.5471 16.4673 12.375H9.12357C9.18639 12.5774 9.21826 12.7881 9.2181 13C9.2187 13.4389 9.10306 13.8702 8.88295 14.25H15.4697C15.8012 14.25 16.1191 14.1183 16.3535 13.8839C16.588 13.6495 16.7197 13.3315 16.7197 13Z" fill="#1E52A6"/>
</svg>
