<svg width="20" height="16" viewBox="0 0 20 16" fill="none" xmlns="http://www.w3.org/2000/svg">
<path d="M1.71967 7.12498H3.59467V12.125H2.34467C2.17891 12.125 2.01993 12.1908 1.90272 12.308C1.78551 12.4252 1.71967 12.5842 1.71967 12.75C1.71967 12.9157 1.78551 13.0747 1.90272 13.1919C2.01993 13.3091 2.17891 13.375 2.34467 13.375H17.3447C17.5104 13.375 17.6694 13.3091 17.7866 13.1919C17.9038 13.0747 17.9697 12.9157 17.9697 12.75C17.9697 12.5842 17.9038 12.4252 17.7866 12.308C17.6694 12.1908 17.5104 12.125 17.3447 12.125H16.0947V7.12498H17.9697C18.1057 7.12484 18.2379 7.08035 18.3463 6.99827C18.4547 6.91618 18.5334 6.80097 18.5704 6.67012C18.6074 6.53927 18.6008 6.39992 18.5514 6.2732C18.5021 6.14648 18.4128 6.03931 18.297 5.96795L10.172 0.967946C10.0736 0.907413 9.96024 0.875366 9.84467 0.875366C9.72909 0.875366 9.61578 0.907413 9.51732 0.967946L1.39232 5.96795C1.27656 6.03931 1.18724 6.14648 1.13789 6.2732C1.08855 6.39992 1.08188 6.53927 1.1189 6.67012C1.15592 6.80097 1.23461 6.91618 1.34303 6.99827C1.45145 7.08035 1.58368 7.12484 1.71967 7.12498ZM4.84467 7.12498H7.34467V12.125H4.84467V7.12498ZM11.0947 7.12498V12.125H8.59467V7.12498H11.0947ZM14.8447 12.125H12.3447V7.12498H14.8447V12.125ZM9.84467 2.23357L15.7619 5.87498H3.92748L9.84467 2.23357ZM19.2197 15.25C19.2197 15.4157 19.1538 15.5747 19.0366 15.6919C18.9194 15.8091 18.7604 15.875 18.5947 15.875H1.09467C0.928905 15.875 0.769934 15.8091 0.652724 15.6919C0.535514 15.5747 0.469666 15.4157 0.469666 15.25C0.469666 15.0842 0.535514 14.9252 0.652724 14.808C0.769934 14.6908 0.928905 14.625 1.09467 14.625H18.5947C18.7604 14.625 18.9194 14.6908 19.0366 14.808C19.1538 14.9252 19.2197 15.0842 19.2197 15.25Z" fill="#1E52A6"/>
</svg>
