<svg width="12" height="7" viewBox="0 0 12 7" fill="none" xmlns="http://www.w3.org/2000/svg">
<path d="M11.3537 6.35378C11.3073 6.40027 11.2521 6.43715 11.1914 6.46231C11.1307 6.48747 11.0657 6.50042 11 6.50042C10.9343 6.50042 10.8692 6.48747 10.8085 6.46231C10.7478 6.43715 10.6927 6.40027 10.6462 6.35378L5.99997 1.7069L1.35372 6.35378C1.2599 6.4476 1.13265 6.50031 0.999973 6.50031C0.867291 6.50031 0.740043 6.4476 0.646223 6.35378C0.552402 6.25996 0.499695 6.13271 0.499695 6.00003C0.499695 5.86735 0.552403 5.7401 0.646223 5.64628L5.64622 0.646277C5.69266 0.599789 5.7478 0.56291 5.8085 0.537747C5.8692 0.512585 5.93427 0.499634 5.99997 0.499634C6.06568 0.499634 6.13074 0.512585 6.19144 0.537747C6.25214 0.56291 6.30729 0.599789 6.35372 0.646277L11.3537 5.64628C11.4002 5.69271 11.4371 5.74786 11.4623 5.80856C11.4874 5.86926 11.5004 5.93432 11.5004 6.00003C11.5004 6.06573 11.4874 6.1308 11.4623 6.1915C11.4371 6.2522 11.4002 6.30734 11.3537 6.35378Z" fill="#1E52A6"/>
</svg>
