<svg width="52" height="52" viewBox="0 0 52 52" fill="none" xmlns="http://www.w3.org/2000/svg">
<g opacity="0.25">
<path d="M26 45.25C15.3685 45.25 6.75 36.6315 6.75 26C6.75 15.3685 15.3685 6.75 26 6.75C36.6315 6.75 45.25 15.3685 45.25 26C45.25 36.6315 36.6315 45.25 26 45.25Z" stroke="#D92A00" stroke-width="1.5"/>
</g>
<g opacity="0.1">
<path d="M26 51.25C12.0548 51.25 0.75 39.9452 0.75 26C0.75 12.0548 12.0548 0.75 26 0.75C39.9452 0.75 51.25 12.0548 51.25 26C51.25 39.9452 39.9452 51.25 26 51.25Z" stroke="#D92A00" stroke-width="1.5"/>
</g>
<path d="M26 13C23.4288 13 20.9154 13.7624 18.7776 15.1909C16.6398 16.6194 14.9735 18.6497 13.9896 21.0251C13.0056 23.4006 12.7482 26.0144 13.2498 28.5362C13.7514 31.0579 14.9895 33.3743 16.8076 35.1924C18.6257 37.0105 20.9421 38.2486 23.4638 38.7502C25.9856 39.2518 28.5995 38.9944 30.9749 38.0104C33.3503 37.0265 35.3807 35.3603 36.8091 33.2224C38.2376 31.0846 39 28.5712 39 26C38.9964 22.5533 37.6256 19.2488 35.1884 16.8116C32.7512 14.3744 29.4467 13.0036 26 13ZM26 37C23.8244 37 21.6977 36.3549 19.8887 35.1462C18.0798 33.9375 16.6699 32.2195 15.8373 30.2095C15.0048 28.1995 14.7869 25.9878 15.2114 23.854C15.6358 21.7202 16.6835 19.7602 18.2218 18.2218C19.7602 16.6834 21.7202 15.6358 23.854 15.2114C25.9878 14.7869 28.1995 15.0048 30.2095 15.8373C32.2195 16.6699 33.9375 18.0798 35.1462 19.8887C36.3549 21.6977 37 23.8244 37 26C36.9967 28.9164 35.8367 31.7123 33.7745 33.7745C31.7123 35.8367 28.9164 36.9967 26 37ZM25 27V20C25 19.7348 25.1054 19.4804 25.2929 19.2929C25.4804 19.1054 25.7348 19 26 19C26.2652 19 26.5196 19.1054 26.7071 19.2929C26.8946 19.4804 27 19.7348 27 20V27C27 27.2652 26.8946 27.5196 26.7071 27.7071C26.5196 27.8946 26.2652 28 26 28C25.7348 28 25.4804 27.8946 25.2929 27.7071C25.1054 27.5196 25 27.2652 25 27ZM27.5 31.5C27.5 31.7967 27.412 32.0867 27.2472 32.3334C27.0824 32.58 26.8481 32.7723 26.574 32.8858C26.2999 32.9993 25.9983 33.0291 25.7074 32.9712C25.4164 32.9133 25.1491 32.7704 24.9393 32.5607C24.7296 32.3509 24.5867 32.0836 24.5288 31.7926C24.4709 31.5017 24.5007 31.2001 24.6142 30.926C24.7277 30.6519 24.92 30.4176 25.1667 30.2528C25.4133 30.088 25.7033 30 26 30C26.3978 30 26.7794 30.158 27.0607 30.4393C27.342 30.7206 27.5 31.1022 27.5 31.5Z" fill="#D92A00"/>
</svg>
